<svg version="1.1" id="Layer_1" xmlns="http://www.w3.org/2000/svg" x="0" y="0" viewBox="0 0 136 83" xml:space="preserve"><style type="text/css">.st0{fill:#fff}</style><path id="XMLID_40_" class="st0" d="M123.7 30.5H120V24c0-4.6-3.7-8.3-8.3-8.3-1 0-2 .2-2.9.5-1.2-5.5-6.1-9.6-11.9-9.6-6.7 0-12.2 5.5-12.2 12.2v11.7H48.3V18.8c0-6.7-5.5-12.2-12.2-12.2-5.8 0-10.7 4.1-11.9 9.6-.9-.3-1.9-.5-2.9-.5-4.6 0-8.3 3.7-8.3 8.3v6.5H9.3c-2.1 0-3.9 1.7-3.9 3.9v14.5c0 2.1 1.7 3.9 3.9 3.9H13v7c0 4.6 3.7 8.3 8.3 8.3 1.1 0 2.1-.2 3.1-.6 1.5 5.1 6.1 8.8 11.7 8.8 6.7 0 12.2-5.5 12.2-12.2V52.8h36.4V64c0 6.7 5.5 12.2 12.2 12.2 5.6 0 10.2-3.7 11.7-8.8 1 .4 2 .6 3.1.6 4.6 0 8.3-3.7 8.3-8.3v-7h3.7c2.1 0 3.9-1.7 3.9-3.9V34.4c0-2.2-1.7-3.9-3.9-3.9zM13 49H9.3c-.1 0-.1-.1-.1-.1V34.4c0-.1.1-.1.1-.1H13V49zm10.9 14.4c-.8.5-1.6.8-2.6.8-2.5 0-4.5-2-4.5-4.5V24c0-2.5 2-4.5 4.5-4.5.9 0 1.8.3 2.6.8v43.1zm20.6.6c0 4.7-3.8 8.5-8.5 8.5-4.5 0-8.1-3.4-8.4-7.8V19c0-4.7 3.8-8.4 8.5-8.4s8.5 3.8 8.5 8.5L44.5 64zm40.2-15H48.3V34.2h36.4V49zm20.7 15v.2c-.2 4.6-3.9 8.2-8.4 8.2-4.7 0-8.5-3.8-8.5-8.5V18.8c0-4.7 3.8-8.5 8.5-8.5s8.4 3.8 8.5 8.5l-.1 45.2zm10.8-4.3c0 2.5-2 4.5-4.5 4.5-.9 0-1.8-.3-2.6-.8V20.3c.8-.5 1.7-.8 2.6-.8 2.5 0 4.5 2 4.5 4.5v35.7zm7.6-10.8c0 .1-.1.1 0 0l-3.8.1V34.2h3.7c.1 0 .1.1.1.1v14.6z"/></svg>