<svg version="1.1" id="Layer_1" xmlns="http://www.w3.org/2000/svg" x="0" y="0" viewBox="0 0 141 91" xml:space="preserve"><style type="text/css">.st0{fill:#fff}</style><path id="XMLID_21_" class="st0" d="M109.9 35.8c-3 0-6 .5-8.8 1.6l-7.6-15.1v-.1l2.3-6.7 3.3.1h.3c.7 0 1.4-.4 1.9-.9.5-.6.7-1.3.7-2-.1-1.5-1.4-2.7-2.9-2.6l-18.6 1.2c-1 .1-1.7.8-1.8 1.8 0 1 .8 1.9 1.8 1.9l10.5.3-2 5.7H45c1.2-4.1 2.1-6.9 2.3-7.5.6-2 1.4-2 1.9-2h9.4c1.3 0 2.3-1 2.3-2.3s-1-2.3-2.3-2.3h-9.4c-2.1 0-5 .9-6.3 5.3-.4 1.3-3.8 12.8-7.2 24l-.1.2c-1.7-.4-3.4-.5-5.2-.5C16.5 35.8 5.2 47.1 5.2 61s11.3 25.2 25.2 25.2S55.6 74.9 55.6 61c0-10.2-6.1-19.3-15.6-23.3l1.8-6L73.2 65c.4.5 1.1.7 1.7.7h10.3c2.3 11.9 12.6 20.5 24.7 20.5 13.9 0 25.2-11.3 25.2-25.2 0-13.9-11.3-25.2-25.2-25.2zM50.9 61c0 11.3-9.2 20.5-20.5 20.5S9.9 72.3 9.9 61s9.2-20.5 20.5-20.5c1.3 0 2.6.1 3.8.4l-5.8 19.5c-.4 1.2.3 2.5 1.6 2.9.2.1.4.1.7.1 1 0 1.9-.7 2.2-1.7.1-.2 2.7-9.2 5.8-19.4 7.4 3.3 12.2 10.6 12.2 18.7zm-7.1-34l.3-1.3h43.3L75.6 60.8 43.8 27zm40.9 34.1h-4.3l11-32.6 5.5 11C89.4 44 84.7 52.3 84.7 61.1zm4.7-.1c0-7 3.7-13.6 9.6-17.4l8.8 17.4H89.4zm20.5 20.6c-9.5 0-17.8-6.6-20-15.8h21.6c1.3 0 2.3-1 2.3-2.3 0-.5-.1-.9-.4-1.2l-10.3-20.6c2.1-.7 4.4-1.1 6.7-1.1 11.3 0 20.5 9.2 20.5 20.5.2 11.2-9 20.5-20.4 20.5z"/></svg>