<?xml version="1.0" encoding="utf-8"?>
<!-- Generator: Adobe Illustrator 19.2.1, SVG Export Plug-In . SVG Version: 6.00 Build 0)  -->
<svg version="1.1" id="Layer_1" xmlns="http://www.w3.org/2000/svg" xmlns:xlink="http://www.w3.org/1999/xlink" x="0px" y="0px"
	 viewBox="0 0 960 340" style="enable-background:new 0 0 960 340;" xml:space="preserve">
<style type="text/css">
	.st0{fill:#FFFFFF;}
</style>
<g id="XMLID_549_">
	<g id="XMLID_635_">
		<path id="XMLID_1311_" class="st0" d="M327.1,174.5c5.9,0,10.2,1.8,14.2,5.5c0.5,0.5,0.5,1.2,0.1,1.6l-4.6,4.7
			c-0.4,0.4-1.1,0.4-1.5,0c-2.2-1.9-5-3-7.9-3c-6.6,0-11.5,5.5-11.5,12.1c0,6.5,4.9,11.9,11.6,11.9c2.8,0,5.7-1,7.9-2.8
			c0.4-0.4,1.2-0.4,1.5,0.1l4.6,4.9c0.4,0.4,0.4,1.2-0.1,1.6c-4,3.9-9,5.7-14.2,5.7c-11.7,0-21.2-9.3-21.2-21.1
			S315.4,174.5,327.1,174.5z"/>
		<path id="XMLID_1313_" class="st0" d="M360.2,176.2c0-0.6,0.5-1.1,1.1-1.1h24.3c0.6,0,1.1,0.5,1.1,1.1v6.4c0,0.6-0.5,1.1-1.1,1.1
			h-16.2v7.3h13.4c0.6,0,1.1,0.5,1.1,1.1v6.4c0,0.6-0.5,1.1-1.1,1.1h-13.4v7.9h16.2c0.6,0,1.1,0.5,1.1,1.1v6.4
			c0,0.6-0.5,1.1-1.1,1.1h-24.3c-0.6,0-1.1-0.5-1.1-1.1V176.2L360.2,176.2z"/>
		<path id="XMLID_1315_" class="st0" d="M406.3,175.5c0-0.6,0.5-1.1,1.1-1.1h1.5l23.4,22.5h0.1v-20.8c0-0.6,0.5-1.1,1.1-1.1h7
			c0.6,0,1.1,0.5,1.1,1.1v39.5c0,0.6-0.5,1.1-1.1,1.1h-0.9c-0.2,0-0.6-0.2-0.8-0.3l-23.2-23.3h-0.1V215c0,0.6-0.5,1.1-1.1,1.1h-7
			c-0.6,0-1.1-0.5-1.1-1.1V175.5z"/>
		<path id="XMLID_1317_" class="st0" d="M468.7,183.7h-8.4c-0.6,0-1.1-0.5-1.1-1.1v-6.4c0-0.6,0.5-1.1,1.1-1.1h26
			c0.6,0,1.1,0.5,1.1,1.1v6.4c0,0.6-0.5,1.1-1.1,1.1H478V215c0,0.6-0.5,1.1-1.1,1.1h-7c-0.6,0-1.1-0.5-1.1-1.1L468.7,183.7
			L468.7,183.7z"/>
		<path id="XMLID_1319_" class="st0" d="M505.1,176.2c0-0.6,0.5-1.1,1.1-1.1h17.5c7,0,12.8,5.7,12.8,12.7c0,5.4-3.6,9.7-8.7,11.8
			l8,14.9c0.4,0.8,0,1.7-1,1.7H527c-0.5,0-0.8-0.3-0.9-0.5l-7.8-15.5h-4v15c0,0.6-0.5,1.1-1.1,1.1h-7c-0.6,0-1.1-0.5-1.1-1.1V176.2
			L505.1,176.2z M523,192.6c2.4,0,4.5-2.2,4.5-4.7s-2.1-4.5-4.5-4.5h-8.7v9.1L523,192.6L523,192.6z"/>
		<path id="XMLID_1322_" class="st0" d="M555.5,176.2c0-0.6,0.5-1.1,1.1-1.1h7.2c0.6,0,1.1,0.5,1.1,1.1V200c0,4.1,3.1,7.4,7.2,7.4
			c4.2,0,7.3-3.3,7.3-7.4v-23.8c0-0.6,0.5-1.1,1.1-1.1h7.2c0.6,0,1.1,0.5,1.1,1.1v24.2c0,8.9-7.5,16.3-16.8,16.3
			c-9.2,0-16.7-7.4-16.7-16.3L555.5,176.2L555.5,176.2z"/>
		<path id="XMLID_1324_" class="st0" d="M614.2,175.4c0.1-0.5,0.6-0.9,1.1-0.9h0.9c0.3,0,0.8,0.2,1,0.6l13.6,25.3h0.1l13.6-25.3
			c0.2-0.3,0.7-0.6,1-0.6h0.9c0.5,0,1,0.4,1.1,0.9l6.6,39.4c0.1,0.8-0.4,1.3-1.1,1.3h-6.9c-0.5,0-1.1-0.5-1.1-0.9l-2.6-18.1h-0.1
			l-9.9,19c-0.2,0.4-0.7,0.6-1,0.6h-1.1c-0.3,0-0.8-0.3-1-0.6l-9.9-19h-0.1l-2.6,18.1c-0.1,0.5-0.5,0.9-1.1,0.9h-6.9
			c-0.7,0-1.2-0.5-1.1-1.3L614.2,175.4z"/>
		<path id="XMLID_1326_" class="st0" d="M23.1,251c-0.4-1.5,0.4-2.6,1.9-2.6h9.9c0.9,0,1.7,0.8,1.9,1.5L48,292.8h0.4l17.1-44.3
			c0.2-0.6,0.8-1.2,1.8-1.2h1.9c1.1,0,1.6,0.5,1.8,1.2l17.2,44.3h0.4l11-42.9c0.2-0.8,1.1-1.5,1.9-1.5h9.9c1.5,0,2.4,1.1,1.9,2.6
			L93,323.3c-0.2,0.9-1.1,1.5-1.9,1.5h-1.7c-1,0-1.6-0.5-1.8-1.2l-19.3-48.7H68l-19,48.7c-0.3,0.6-0.8,1.2-1.8,1.2h-1.7
			c-0.9,0-1.7-0.6-1.9-1.5L23.1,251z"/>
		<path id="XMLID_1328_" class="st0" d="M147.7,250.4c0-1.1,1-2,2-2h10c1.1,0,2,1,2,2v71.2c0,1.1-1,2-2,2h-10c-1.1,0-2-1-2-2V250.4z
			"/>
		<path id="XMLID_1330_" class="st0" d="M236.2,247.3c10.9,0,18.7,3.4,26,10c1,0.9,1,2.2,0.1,3l-6.6,6.8c-0.8,0.9-1.8,0.9-2.7,0
			c-4.5-4-10.5-6.4-16.6-6.4c-13.8,0-24,11.5-24,25.1c0,13.5,10.3,24.9,24.1,24.9c6.5,0,11.9-2.5,16.5-6.1c0.9-0.8,2-0.6,2.7,0
			l6.7,6.9c0.9,0.8,0.6,2.1-0.1,2.9c-7.3,7.1-16.6,10.4-26.1,10.4c-21.5,0-38.8-17.1-38.8-38.6C197.4,264.6,214.7,247.3,236.2,247.3
			z"/>
		<path id="XMLID_1332_" class="st0" d="M298,251c0-1.4,1.1-2.6,2.6-2.6h9.5c1.4,0,2.6,1.2,2.6,2.6v29l27.1-30.6
			c0.4-0.5,1.1-1.1,2-1.1h10.8c2,0,3.1,2.3,1.7,3.9l-28.1,31.6l30.1,36c1.1,1.4,0.2,3.8-1.9,3.8h-11.7c-1.1,0-1.7-0.4-1.9-0.8
			l-28.1-34.7v32.8c0,1.4-1.2,2.6-2.6,2.6h-9.5c-1.5,0-2.6-1.2-2.6-2.6V251L298,251z"/>
		<path id="XMLID_1334_" class="st0" d="M389.7,250.4c0-1.1,0.9-2,2-2h43.8c1.2,0,2,1,2,2v8.8c0,1.1-0.9,2-2,2h-31.8V279h26.6
			c1.1,0,2,1,2,2v8.9c0,1.2-1,2-2,2h-26.6v18.8h31.8c1.2,0,2,1,2,2v8.8c0,1.1-0.9,2-2,2h-43.8c-1.2,0-2-1-2-2V250.4z"/>
		<path id="XMLID_1336_" class="st0" d="M474.4,250.4c0-1.1,0.9-2,2-2h30.8c12.9,0,23.5,10.3,23.5,23.1c0,9.9-6.6,18-15.9,21.7
			l14.7,27.3c0.8,1.4,0,3.1-1.8,3.1h-11.3c-1,0-1.5-0.5-1.7-1l-14.3-28.5h-11.9v27.4c0,1.1-1,2-2,2h-9.9c-1.2,0-2-1-2-2L474.4,250.4
			L474.4,250.4z M506.1,282.7c5.7,0,10.7-5,10.7-11c0-5.7-5-10.4-10.7-10.4h-17.5v21.4H506.1L506.1,282.7z"/>
		<path id="XMLID_1339_" class="st0" d="M612.9,250.4c0-1.1,0.9-2,2-2h25.3c13.2,0,24.1,10.8,24.1,23.8c0,13.3-10.9,24.2-24,24.2
			h-13.5v25.3c0,1.1-1,2-2,2h-9.9c-1.2,0-2-1-2-2L612.9,250.4L612.9,250.4z M639.4,283.3c6,0,11.1-4.8,11.1-11.2
			c0-5.9-5.1-10.4-11.1-10.4h-12.5v21.6H639.4z"/>
		<path id="XMLID_1342_" class="st0" d="M684.1,320.9l33.5-72.4c0.3-0.6,0.9-1.2,1.8-1.2h1.1c1.1,0,1.5,0.5,1.8,1.2l33.1,72.4
			c0.6,1.4-0.2,2.8-1.8,2.8h-9.4c-1.6,0-2.4-0.6-3.1-2.1l-5.3-11.6h-32.2l-5.3,11.6c-0.4,1.1-1.4,2.1-3.1,2.1h-9.4
			C684.3,323.7,683.5,322.3,684.1,320.9z M730.6,298l-10.8-23.7h-0.3L709,298H730.6z"/>
		<path id="XMLID_1345_" class="st0" d="M786.7,250.4c0-1.1,0.9-2,2-2h30.8c12.9,0,23.5,10.3,23.5,23.1c0,9.9-6.6,18-15.9,21.7
			l14.7,27.3c0.8,1.4,0,3.1-1.8,3.1h-11.3c-1,0-1.5-0.5-1.7-1l-14.3-28.5h-11.9v27.4c0,1.1-1,2-2,2h-9.9c-1.2,0-2-1-2-2L786.7,250.4
			L786.7,250.4z M818.4,282.7c5.7,0,10.7-5,10.7-11c0-5.7-4.9-10.4-10.7-10.4h-17.5v21.4H818.4L818.4,282.7z"/>
		<path id="XMLID_1348_" class="st0" d="M879.9,251c0-1.4,1.1-2.6,2.6-2.6h9.5c1.4,0,2.6,1.2,2.6,2.6v29l27.1-30.6
			c0.4-0.5,1.1-1.1,2-1.1h10.8c2,0,3.1,2.3,1.7,3.9l-28.1,31.6l30.1,36c1.1,1.4,0.2,3.8-1.9,3.8h-11.7c-1.1,0-1.7-0.4-1.9-0.8
			l-28.1-34.7v32.8c0,1.4-1.2,2.6-2.6,2.6h-9.5c-1.5,0-2.6-1.2-2.6-2.6L879.9,251L879.9,251z"/>
	</g>
	<g id="XMLID_608_">
		<path id="XMLID_609_" class="st0" d="M559,14.9c-0.1-1.1-0.6-2.1-1.4-2.8c-1.7-1.5-4.3-1.2-5.8,0.5L482,95.5l-72.2-82.9
			c-1.5-1.7-4.1-1.9-5.8-0.4c-0.8,0.7-1.3,1.7-1.4,2.8s0.3,2.1,1,3l74.7,85.8c0.9,1.1,2.3,1.7,3.7,1.7l0,0l0,0
			c1.4,0,2.8-0.6,3.7-1.7L558,18C558.8,17.1,559.1,16,559,14.9z"/>
		<path id="XMLID_612_" class="st0" d="M385.5,31.5c-0.7-0.8-1.7-1.3-2.8-1.4c-1.1-0.1-2.1,0.3-3,1c-0.8,0.7-1.3,1.7-1.4,2.8
			c-0.1,1.1,0.3,2.1,1,3l75.3,86.5c0.8,0.9,1.9,1.4,3.1,1.4c1,0,1.9-0.4,2.7-1c0.8-0.7,1.3-1.7,1.4-2.8c0.1-1.1-0.3-2.1-1-3
			L385.5,31.5z"/>
		<path id="XMLID_613_" class="st0" d="M581.9,31.1c-0.8-0.7-1.9-1.1-3-1s-2.1,0.6-2.8,1.4L500.8,118c-0.7,0.8-1.1,1.9-1,3
			s0.6,2.1,1.4,2.8c0.8,0.6,1.7,1,2.7,1c1.2,0,2.3-0.5,3.1-1.4l75.3-86.5c0.7-0.8,1.1-1.9,1-3C583.3,32.8,582.8,31.8,581.9,31.1z"/>
	</g>
</g>
</svg>
