<svg version="1.1" id="Layer_1" xmlns="http://www.w3.org/2000/svg" x="0" y="0" viewBox="0 0 960 342" xml:space="preserve"><style type="text/css">.st0{fill:#FFF}</style><g id="XMLID_549_"><g id="XMLID_635_"><path id="XMLID_1311_" class="st0" d="M325.6 176.4c6 0 10.4 1.9 14.5 5.6.5.5.5 1.2.1 1.7l-4.7 4.8c-.4.4-1.1.4-1.5 0-2.2-2-5.1-3-8.1-3-6.8 0-11.7 5.6-11.7 12.3 0 6.6 5 12.1 11.8 12.1 2.8 0 5.9-1 8-2.9.4-.4 1.2-.4 1.6.1l4.7 5c.4.4.4 1.2-.1 1.6-4.1 3.9-9.2 5.8-14.5 5.8-12 0-21.6-9.5-21.6-21.5-.1-12 9.5-21.6 21.5-21.6z"/><path id="XMLID_1313_" class="st0" d="M359.3 178.2c0-.6.5-1.1 1.1-1.1h24.8c.7 0 1.1.5 1.1 1.1v6.5c0 .6-.5 1.1-1.1 1.1h-16.6v7.4h13.6c.6 0 1.1.5 1.1 1.1v6.5c0 .7-.5 1.1-1.1 1.1h-13.6v8.1h16.6c.7 0 1.1.5 1.1 1.1v6.5c0 .6-.5 1.1-1.1 1.1h-24.8c-.7 0-1.1-.5-1.1-1.1v-39.4z"/><path id="XMLID_1315_" class="st0" d="M406.3 177.5c0-.6.5-1.1 1.1-1.1h1.5l23.9 23h.1v-21.2c0-.6.5-1.1 1.1-1.1h7.2c.6 0 1.1.5 1.1 1.1v40.3c0 .6-.5 1.1-1.1 1.1h-1c-.2 0-.7-.2-.8-.3l-23.6-23.8h-.1v22.3c0 .6-.5 1.1-1.1 1.1h-7.1c-.6 0-1.1-.5-1.1-1.1l-.1-40.3z"/><path id="XMLID_1317_" class="st0" d="M470 185.8h-8.6c-.7 0-1.1-.5-1.1-1.1v-6.5c0-.6.5-1.1 1.1-1.1H488c.7 0 1.1.5 1.1 1.1v6.5c0 .6-.5 1.1-1.1 1.1h-8.6v31.9c0 .6-.5 1.1-1.1 1.1h-7.2c-.6 0-1.1-.5-1.1-1.1v-31.9z"/><path id="XMLID_1319_" class="st0" d="M507.1 178.2c0-.6.5-1.1 1.1-1.1h17.9c7.2 0 13 5.8 13 12.9 0 5.5-3.6 9.9-8.8 12l8.2 15.2c.4.8 0 1.7-1 1.7h-8c-.5 0-.8-.3-1-.5l-8-15.9h-4.1v15.3c0 .6-.5 1.1-1.1 1.1h-7.1c-.7 0-1.1-.5-1.1-1.1v-39.6zm18.2 16.7c2.5 0 4.5-2.3 4.5-4.8s-2.1-4.5-4.5-4.5h-8.9v9.3h8.9z"/><path id="XMLID_1322_" class="st0" d="M558.6 178.2c0-.6.5-1.1 1.1-1.1h7.4c.7 0 1.1.5 1.1 1.1v24.2c0 4.2 3.1 7.5 7.4 7.5 4.3 0 7.5-3.4 7.5-7.5v-24.2c0-.6.5-1.1 1.1-1.1h7.4c.6 0 1.1.5 1.1 1.1v24.7c0 9.1-7.7 16.6-17.1 16.6-9.4 0-17-7.5-17-16.6v-24.7z"/><path id="XMLID_1324_" class="st0" d="M618.4 177.4c.1-.5.6-1 1.1-1h1c.3 0 .8.2 1 .6l13.9 25.8h.1l13.9-25.8c.2-.4.7-.6 1-.6h1c.5 0 1 .4 1.1 1l6.8 40.2c.1.8-.4 1.3-1.1 1.3H651c-.5 0-1.1-.5-1.1-1l-2.7-18.5h-.2l-10 19.4c-.2.4-.7.7-1 .7h-1.1c-.4 0-.8-.3-1-.7l-10.1-19.4h-.1l-2.6 18.5c-.1.5-.5 1-1.1 1h-7.1c-.7 0-1.3-.5-1.1-1.3l6.6-40.2z"/><path id="XMLID_1326_" class="st0" d="M15.5 254.4c-.4-1.5.4-2.6 2-2.6h10.1c.9 0 1.8.8 2 1.5L41 297.1h.4l17.4-45.2c.2-.7.8-1.2 1.9-1.2h2c1.1 0 1.6.5 1.9 1.2l17.6 45.2h.4l11.2-43.8c.2-.8 1.1-1.5 2-1.5h10.1c1.5 0 2.4 1.1 2 2.6l-20.7 73.7c-.2.9-1.1 1.5-2 1.5h-1.8c-1 0-1.6-.5-1.9-1.2l-19.6-49.7h-.5L42 328.4c-.3.7-.8 1.2-1.9 1.2h-1.8c-.9 0-1.8-.7-2-1.5l-20.8-73.7z"/><path id="XMLID_1328_" class="st0" d="M142.6 253.9c0-1.1 1-2.1 2.1-2.1h10.2c1.1 0 2.1 1 2.1 2.1v72.7c0 1.1-1 2.1-2.1 2.1h-10.2c-1.1 0-2.1-1-2.1-2.1v-72.7z"/><path id="XMLID_1330_" class="st0" d="M232.9 250.7c11.1 0 19.1 3.5 26.6 10.2 1 .9 1 2.2.1 3.1l-6.7 6.9c-.8.9-1.9.9-2.7 0-4.6-4.1-10.8-6.5-16.9-6.5-14 0-24.5 11.7-24.5 25.6 0 13.7 10.5 25.4 24.6 25.4 6.6 0 12.2-2.5 16.8-6.3.9-.8 2.1-.7 2.7 0l6.8 7c.9.8.7 2.2-.1 3-7.5 7.2-16.9 10.6-26.7 10.6-21.9 0-39.6-17.5-39.6-39.4s17.6-39.6 39.6-39.6z"/><path id="XMLID_1332_" class="st0" d="M295.9 254.4c0-1.4 1.1-2.6 2.6-2.6h9.7c1.4 0 2.6 1.2 2.6 2.6V284l27.7-31.2c.4-.5 1.1-1.1 2.1-1.1h11c2.1 0 3.2 2.3 1.8 4L324.6 288l30.7 36.8c1.1 1.4.2 3.8-2 3.8h-12c-1.1 0-1.8-.4-2-.8l-28.6-35.3V326c0 1.4-1.2 2.6-2.6 2.6h-9.7c-1.5 0-2.6-1.2-2.6-2.6l.1-71.6z"/><path id="XMLID_1334_" class="st0" d="M389.4 253.9c0-1.1.9-2.1 2.1-2.1h44.7c1.2 0 2.1 1 2.1 2.1v9c0 1.1-.9 2.1-2.1 2.1h-32.5v18h27.1c1.1 0 2.1 1 2.1 2.1v9.1c0 1.2-1 2.1-2.1 2.1h-27.1v19.2h32.5c1.2 0 2.1 1 2.1 2.1v9c0 1.1-.9 2.1-2.1 2.1h-44.7c-1.2 0-2.1-1-2.1-2.1v-72.7z"/><path id="XMLID_1336_" class="st0" d="M475.8 253.9c0-1.1.9-2.1 2.1-2.1h31.4c13.2 0 23.9 10.5 23.9 23.6 0 10.1-6.7 18.3-16.2 22.2l15 27.9c.8 1.4 0 3.2-1.9 3.2h-11.5c-1 0-1.5-.5-1.8-1l-14.6-29.1H490v28c0 1.1-1 2.1-2.1 2.1h-10.1c-1.2 0-2.1-1-2.1-2.1l.1-72.7zm32.3 32.9c5.8 0 10.9-5.1 10.9-11.2 0-5.8-5.1-10.6-10.9-10.6h-17.9v21.8h17.9z"/><path id="XMLID_1339_" class="st0" d="M617 253.9c0-1.1.9-2.1 2.1-2.1h25.8c13.5 0 24.6 11 24.6 24.3 0 13.6-11.1 24.7-24.5 24.7h-13.7v25.8c0 1.1-1 2.1-2.1 2.1h-10.1c-1.2 0-2.1-1-2.1-2.1v-72.7zm27 33.5c6.1 0 11.3-4.9 11.3-11.4 0-6-5.2-10.6-11.3-10.6h-12.7v22.1l12.7-.1z"/><path id="XMLID_1342_" class="st0" d="M689.7 325.8l34.1-73.9c.3-.7.9-1.2 1.9-1.2h1.1c1.1 0 1.5.5 1.9 1.2l33.8 73.9c.7 1.4-.2 2.9-1.9 2.9H751c-1.6 0-2.4-.7-3.2-2.2l-5.4-11.9h-32.8l-5.4 11.9c-.4 1.1-1.4 2.2-3.2 2.2h-9.6c-1.5-.1-2.4-1.5-1.7-2.9zm47.4-23.4l-11-24.1h-.3L715 302.4h22.1z"/><path id="XMLID_1345_" class="st0" d="M794.4 253.9c0-1.1.9-2.1 2.1-2.1h31.4c13.2 0 23.9 10.5 23.9 23.6 0 10.1-6.7 18.3-16.2 22.2l15 27.9c.8 1.4 0 3.2-1.9 3.2h-11.5c-1 0-1.5-.5-1.8-1l-14.6-29.1h-12.2v28c0 1.1-1 2.1-2.1 2.1h-10.1c-1.2 0-2.1-1-2.1-2.1v-72.7zm32.2 32.9c5.8 0 10.9-5.1 10.9-11.2 0-5.8-5-10.6-10.9-10.6h-17.9v21.8h17.9z"/><path id="XMLID_1348_" class="st0" d="M889.4 254.4c0-1.4 1.1-2.6 2.6-2.6h9.7c1.4 0 2.6 1.2 2.6 2.6V284l27.7-31.2c.4-.5 1.1-1.1 2.1-1.1h11c2.1 0 3.2 2.3 1.8 4L918.1 288l30.7 36.8c1.1 1.4.2 3.8-2 3.8h-12c-1.1 0-1.8-.4-2-.8l-28.6-35.3V326c0 1.4-1.2 2.6-2.6 2.6H892c-1.5 0-2.6-1.2-2.6-2.6v-71.6z"/></g><g id="XMLID_608_"><path id="XMLID_609_" class="st0" d="M562.1 13.7c-.1-1.1-.6-2.1-1.5-2.8-1.8-1.5-4.4-1.2-5.9.5l-71.2 84.5L410 11.3c-1.5-1.7-4.1-1.9-5.9-.4-.8.7-1.3 1.7-1.4 2.9-.1 1.1.3 2.2 1 3l76.2 87.6c.9 1.1 2.3 1.7 3.7 1.7 1.4 0 2.8-.7 3.8-1.8l73.7-87.5c.7-.9 1.1-2 1-3.1z"/><path id="XMLID_612_" class="st0" d="M385.2 30.5c-.7-.8-1.7-1.3-2.9-1.4-1.1-.1-2.2.3-3 1-.8.7-1.3 1.7-1.4 2.9-.1 1.1.3 2.2 1 3l76.8 88.2c.8.9 1.9 1.4 3.1 1.4 1 0 2-.4 2.7-1 .8-.7 1.3-1.8 1.4-2.9.1-1.1-.3-2.2-1-3l-76.7-88.2z"/><path id="XMLID_613_" class="st0" d="M585.5 30.1c-.8-.7-1.9-1.1-3-1-1.1.1-2.1.6-2.9 1.4l-76.8 88.2c-.7.8-1.1 1.9-1 3 .1 1.1.6 2.1 1.4 2.9.8.7 1.7 1 2.7 1 1.2 0 2.4-.5 3.1-1.4L585.9 36c.7-.8 1.1-1.9 1-3-.1-1.1-.6-2.1-1.4-2.9z"/></g></g></svg>