<svg id="Layer_1" xmlns="http://www.w3.org/2000/svg" viewBox="0 0 835 359"><style>.st0{fill:#FFF}</style><g id="XMLID_802_"><g id="XMLID_832_"><path id="XMLID_902_" class="st0" d="M262.4 194.7c6 0 10.4 1.9 14.5 5.6.5.5.5 1.2.1 1.7l-4.7 4.8c-.4.4-1.1.4-1.5 0-2.2-2-5.1-3-8.1-3-6.8 0-11.7 5.6-11.7 12.3 0 6.6 5 12.1 11.8 12.1 2.8 0 5.9-1 8-2.9.4-.4 1.2-.4 1.6.1l4.7 5c.4.4.4 1.2-.1 1.6-4.1 3.9-9.2 5.8-14.5 5.8-12 0-21.6-9.5-21.6-21.5-.1-11.9 9.5-21.6 21.5-21.6z"/><path id="XMLID_891_" class="st0" d="M296.1 196.5c0-.6.5-1.1 1.1-1.1H322c.7 0 1.1.5 1.1 1.1v6.5c0 .6-.5 1.1-1.1 1.1h-16.6v7.4H319c.6 0 1.1.5 1.1 1.1v6.5c0 .7-.5 1.1-1.1 1.1h-13.6v8.1H322c.7 0 1.1.5 1.1 1.1v6.5c0 .6-.5 1.1-1.1 1.1h-24.8c-.7 0-1.1-.5-1.1-1.1v-39.4z"/><path id="XMLID_887_" class="st0" d="M343 195.8c0-.6.5-1.1 1.1-1.1h1.5l23.9 23h.1v-21.2c0-.6.5-1.1 1.1-1.1h7.2c.6 0 1.1.5 1.1 1.1v40.3c0 .6-.5 1.1-1.1 1.1h-1c-.2 0-.7-.2-.8-.3l-23.6-23.8h-.1v22.3c0 .6-.5 1.1-1.1 1.1h-7.1c-.6 0-1.1-.5-1.1-1.1l-.1-40.3z"/><path id="XMLID_881_" class="st0" d="M406.7 204.1h-8.6c-.7 0-1.1-.5-1.1-1.1v-6.5c0-.6.5-1.1 1.1-1.1h26.6c.7 0 1.1.5 1.1 1.1v6.5c0 .6-.5 1.1-1.1 1.1h-8.6V236c0 .6-.5 1.1-1.1 1.1h-7.2c-.6 0-1.1-.5-1.1-1.1v-31.9z"/><path id="XMLID_868_" class="st0" d="M443.8 196.5c0-.6.5-1.1 1.1-1.1h17.9c7.2 0 13 5.8 13 12.9 0 5.5-3.6 9.9-8.8 12l8.2 15.2c.4.8 0 1.7-1 1.7h-8c-.5 0-.8-.3-1-.5l-8-15.9h-4.1v15.3c0 .6-.5 1.1-1.1 1.1h-7c-.7 0-1.1-.5-1.1-1.1l-.1-39.6zm18.3 16.7c2.5 0 4.5-2.3 4.5-4.8s-2.1-4.5-4.5-4.5h-8.9v9.3h8.9z"/><path id="XMLID_864_" class="st0" d="M495.3 196.5c0-.6.5-1.1 1.1-1.1h7.4c.7 0 1.1.5 1.1 1.1v24.2c0 4.2 3.1 7.5 7.4 7.5 4.3 0 7.5-3.4 7.5-7.5v-24.2c0-.6.5-1.1 1.1-1.1h7.4c.6 0 1.1.5 1.1 1.1v24.7c0 9.1-7.7 16.6-17.1 16.6-9.4 0-17-7.5-17-16.6v-24.7z"/><path id="XMLID_862_" class="st0" d="M555.2 195.7c.1-.5.6-1 1.1-1h1c.3 0 .8.2 1 .6l13.9 25.8h.1l13.9-25.8c.2-.4.7-.6 1-.6h1c.5 0 1 .4 1.1 1l6.8 40.2c.1.8-.4 1.3-1.1 1.3h-7.1c-.5 0-1.1-.5-1.1-1l-2.7-18.5h-.1l-10.1 19.4c-.2.4-.7.7-1 .7h-1.1c-.4 0-.8-.3-1-.7l-10.1-19.4h-.1l-2.6 18.5c-.1.5-.5 1-1.1 1h-7.1c-.7 0-1.3-.5-1.1-1.3l6.5-40.2z"/><path id="XMLID_855_" class="st0" d="M50.8 269c21.9 0 39.5 17.7 39.5 39.6 0 22-17.6 39.4-39.5 39.4s-39.4-17.4-39.4-39.4c0-21.9 17.4-39.6 39.4-39.6zm0 64.8c13.8 0 25.2-11.3 25.2-25.1s-11.4-25.4-25.2-25.4-25.1 11.5-25.1 25.4 11.2 25.1 25.1 25.1z"/><path id="XMLID_852_" class="st0" d="M126.6 272.2c0-1.1.9-2.1 2.1-2.1h10.1c1.1 0 2.1 1 2.1 2.1v61.6h28c1.2 0 2.1 1 2.1 2.1v9c0 1.1-.9 2.1-2.1 2.1h-40.2c-1.2 0-2.1-1-2.1-2.1v-72.7z"/><path id="XMLID_848_" class="st0" d="M203.9 272.2c0-1.1.9-2.1 2-2.1h26c21.2 0 38.5 17.2 38.5 38.3 0 21.3-17.3 38.5-38.5 38.5h-26c-1.1 0-2-1-2-2.1v-72.6zm26.7 61.4c14.3 0 24.7-10.8 24.7-25.1s-10.4-25-24.7-25h-12.5v50.2h12.5z"/><path id="XMLID_844_" class="st0" d="M353.1 272.2c0-1.1 1-2.1 2.1-2.1h10.2c1.1 0 2.1 1 2.1 2.1v72.7c0 1.1-1 2.1-2.1 2.1h-10.2c-1.1 0-2.1-1-2.1-2.1v-72.7z"/><path id="XMLID_841_" class="st0" d="M409.3 272.2c0-1.1.9-2.1 2.1-2.1h31.4c13.2 0 23.9 10.5 23.9 23.6 0 10.1-6.7 18.3-16.2 22.2l15 27.9c.8 1.4 0 3.2-1.9 3.2h-11.5c-1 0-1.5-.5-1.8-1l-14.6-29.1h-12.2v28c0 1.1-1 2.1-2.1 2.1h-10.1c-1.2 0-2.1-1-2.1-2.1v-72.7zm32.3 32.9c5.8 0 10.9-5 10.9-11.2 0-5.8-5-10.6-10.9-10.6h-17.9v21.8h17.9z"/><path id="XMLID_839_" class="st0" d="M494.4 273c-.7-1.4.2-2.9 1.9-2.9h11.2c1 0 1.6.7 1.9 1.2l21.1 47.2h.8l21.1-47.2c.2-.5.9-1.2 1.9-1.2h11.2c1.6 0 2.5 1.4 1.9 2.9l-34 73.9c-.3.7-.9 1.2-1.9 1.2h-1.1c-1 0-1.5-.5-1.9-1.2L494.4 273z"/><path id="XMLID_837_" class="st0" d="M599.1 272.2c0-1.1 1-2.1 2.1-2.1h10.2c1.1 0 2.1 1 2.1 2.1v72.7c0 1.1-1 2.1-2.1 2.1h-10.2c-1.1 0-2.1-1-2.1-2.1v-72.7z"/><path id="XMLID_835_" class="st0" d="M655.3 271c0-1.1 1-2 2.1-2h2.7l45.7 48.5h.1v-45.3c0-1.1.9-2.1 2.1-2.1h10.1c1.1 0 2.1 1 2.1 2.1v73.9c0 1.1-1 2-2.1 2h-2.6l-45.9-50.4h-.1v47.2c0 1.1-.9 2.1-2.1 2.1h-10c-1.1 0-2.1-1-2.1-2.1V271z"/><path id="XMLID_833_" class="st0" d="M796 269c9.9 0 19.3 3.8 26.8 10.2.9.9 1 2.2.1 3.1l-6.8 7.1c-.9.9-1.9.9-2.9 0-4.7-4.2-10.5-6.4-16.6-6.4-13.7 0-24.6 11.7-24.6 25.5 0 13.6 10.9 25.1 24.7 25.1 6.1 0 10.9-1.9 13.1-2.7v-9.3H801c-1.2 0-2.1-.9-2.1-2v-8.7c0-1.2.9-2.1 2.1-2.1h21.1c1.1 0 2 1 2 2.1V339c0 .9-.4 1.4-.9 1.8 0 0-11.3 7.1-27.2 7.1-21.8 0-39.4-17.3-39.4-39.3 0-21.9 17.6-39.6 39.4-39.6z"/></g><path id="XMLID_806_" class="st0" d="M480.4 12.7H356.7c-1.9 0-3.5 1.6-3.5 3.5V140c0 1.9 1.6 3.5 3.5 3.5h123.8c1.9 0 3.5-1.6 3.5-3.5V16.2c-.1-1.9-1.6-3.5-3.6-3.5zm-85.6 124.9H359v-35.8h35.8v35.8zm0-41.7H359V60.2h35.8v35.7zm0-41.6H359V18.6h35.8v35.7zm41.6 83.3h-35.7v-35.8h35.7v35.8zm0-41.7h-35.7V60.2h35.7v35.7zm0-41.6h-35.7V18.6h35.7v35.7zm41.7 83.3h-35.8v-35.8h35.8v35.8zm0-41.7h-35.8V60.2h35.8v35.7zm0-41.6h-35.8V18.6h35.8v35.7z"/></g></svg>