<svg version="1.1" id="Layer_1" xmlns="http://www.w3.org/2000/svg" x="0" y="0" width="600" height="600" viewBox="0 0 600 600" fill="#fff" xml:space="preserve"><path d="M533.846 174.216H239.311v-50.558h35.755c11.619 0 21.438-9.818 21.438-21.438v-1.7c0-11.619-9.818-21.438-21.438-21.438H158.981c-11.619 0-21.438 9.818-21.438 21.438v1.7c0 11.619 9.818 21.438 21.438 21.438h35.755v50.558H74.039c-11.082 0-20.029 7.835-21.4 19.037l-.6.607v146.759c0 11.619 9.818 21.431 21.438 21.431h63.984c11.619 0 21.438-9.812 21.438-21.431v-59.543h374.947c11.619 0 21.438-9.818 21.438-21.438v-63.984c-.001-11.619-9.819-21.438-21.438-21.438zm-375.433-70.783c-.802 0-1.213-.411-1.213-1.213v-1.7c0-.802.411-1.213 1.213-1.213h116.084c.802 0 1.213.411 1.213 1.213v1.7c0 .209-.373.777-1.068 1.213H158.413zm60.673 19.656v50.558h-4.126v-50.558h4.126zm316.541 136.549c0 .802-.411 1.213-1.219 1.213H149.352c-3.071 0-5.554.922-7.373 2.742-1.813 1.813-2.736 4.296-2.736 7.373v69.652c0 .802-.411 1.213-1.213 1.213H74.039c-.802 0-1.213-.411-1.213-1.213V195.085c0-.802.411-1.213 1.213-1.213h460.368c.809 0 1.219.411 1.219 1.213v64.553zM101.22 373.542c-3.349 0-6.072 1.358-8.087 4.037l1.295.973-1.523-.67c-9.585 12.624-40.866 56.339-40.866 89.011 0 37.688 20.686 65.039 49.181 65.039 28.501 0 49.187-27.351 49.187-65.039 0-32.671-31.281-76.387-41.093-89.314-2.016-2.678-4.739-4.037-8.094-4.037zm0 138.166c-15.96 0-28.413-19.27-28.963-44.834.013-18.316 15.461-45.428 28.994-65.646 14.235 20.446 28.931 47.848 28.931 65.665.001 25.551-12.452 44.815-28.962 44.815z"/></svg>