<svg version="1.1" id="Layer_1" xmlns="http://www.w3.org/2000/svg" x="0" y="0" width="600" height="600" viewBox="0 0 600 600" fill="#fff" xml:space="preserve"><path id="XMLID_40_" fill="#231F20" d="M573.616 261.295h-17.885v-30.874c0-21.806-17.74-39.546-39.546-39.546-4.735 0-9.342.873-13.674 2.474-5.669-26.22-29.017-45.936-56.909-45.936-32.119 0-58.251 26.132-58.251 58.251v55.631H213.369v-55.631c0-32.119-26.132-58.251-58.251-58.251-27.891 0-51.241 19.715-56.913 45.934-4.33-1.599-8.935-2.472-13.67-2.472-21.806 0-39.546 17.74-39.546 39.546v30.874H27.1c-10.169 0-18.444 8.273-18.444 18.442v69.34c0 10.168 8.276 18.444 18.444 18.444h17.889v33.261c0 21.806 17.74 39.546 39.546 39.546 5.141 0 10.143-.989 14.788-2.866 7.064 24.305 29.274 41.792 55.795 41.792 32.119 0 58.251-26.132 58.251-58.251v-53.481h173.984v53.481c0 32.119 26.132 58.251 58.251 58.251 26.52 0 48.729-17.485 55.794-41.79a39.414 39.414 0 0 0 14.789 2.864c21.806 0 39.546-17.74 39.546-39.546v-33.261h17.885c10.169 0 18.444-8.276 18.444-18.444v-69.34c-.001-10.168-8.277-18.442-18.446-18.442zM44.989 349.618H27.1a.541.541 0 0 1-.541-.541v-69.34a.54.54 0 0 1 .541-.538h17.889v70.419zm51.878 68.937a21.486 21.486 0 0 1-12.332 3.87c-11.936 0-21.642-9.707-21.642-21.642V230.421c0-11.933 9.707-21.642 21.642-21.642 4.457 0 8.728 1.357 12.332 3.872v205.904zm98.598 2.448c0 22.249-18.099 40.348-40.348 40.348-21.324 0-38.638-16.321-40.14-37.429l-.207-218.275c.01-22.24 18.104-40.33 40.347-40.33 22.249 0 40.348 18.099 40.348 40.348v215.338zm191.887-71.385H213.369v-70.42h173.984v70.42zm98.571 71.721l-.031 1.022-.021-.001c-.727 21.866-18.416 38.991-40.268 38.991-22.249 0-40.348-18.099-40.348-40.348V205.665c0-22.249 18.099-40.348 40.348-40.348 22.243 0 40.342 18.098 40.343 40.346l-.023 215.676zm51.905-20.557c0 11.936-9.707 21.642-21.642 21.642a21.49 21.49 0 0 1-12.337-3.87V212.653a21.466 21.466 0 0 1 12.337-3.874c11.935 0 21.642 9.709 21.642 21.642v170.361zm36.329-51.705a.541.541 0 0 1-.541.541h-17.885v-70.42h17.885a.54.54 0 0 1 .541.538v69.341z"/></svg>