<svg version="1.1" id="Layer_1" xmlns="http://www.w3.org/2000/svg" x="0" y="0" width="600" height="600" viewBox="0 0 600 600" fill="#fff" xml:space="preserve"><path id="XMLID_40_" fill="#231F20" d="M573.616 261.295H555.73V230.42c0-21.805-17.74-39.545-39.545-39.545-4.735 0-9.342.873-13.674 2.474-5.668-26.22-29.016-45.937-56.908-45.937-32.12 0-58.25 26.132-58.25 58.25v55.632H213.368v-55.63c0-32.12-26.133-58.252-58.252-58.252-27.89 0-51.24 19.715-56.913 45.934-4.33-1.6-8.935-2.472-13.67-2.472-21.806 0-39.546 17.74-39.546 39.546v30.875H27.1c-10.17 0-18.444 8.273-18.444 18.442v69.34c0 10.168 8.276 18.444 18.444 18.444h17.89v33.262c0 21.806 17.74 39.546 39.545 39.546 5.14 0 10.143-.99 14.788-2.866 7.064 24.305 29.274 41.792 55.795 41.792 32.12 0 58.25-26.132 58.25-58.25V367.52h173.985v53.48c0 32.12 26.132 58.252 58.25 58.252 26.52 0 48.73-17.485 55.795-41.79a39.414 39.414 0 0 0 14.79 2.864c21.805 0 39.545-17.74 39.545-39.546v-33.26h17.885c10.17 0 18.444-8.277 18.444-18.445v-69.34c0-10.168-8.277-18.442-18.446-18.442zM44.99 349.618H27.1a.54.54 0 0 1-.54-.54v-69.34a.54.54 0 0 1 .54-.54h17.89v70.42zm51.877 68.937a21.486 21.486 0 0 1-12.332 3.87c-11.936 0-21.642-9.707-21.642-21.642V230.42c0-11.932 9.707-21.64 21.642-21.64 4.457 0 8.728 1.356 12.332 3.87v205.905zm98.598 2.448c0 22.25-18.1 40.348-40.348 40.348-21.324 0-38.638-16.32-40.14-37.428l-.207-218.275c.01-22.24 18.104-40.33 40.347-40.33 22.25 0 40.348 18.1 40.348 40.348v215.338zm191.887-71.385H213.37v-70.42h173.983v70.42zm98.57 71.72l-.03 1.023h-.02c-.728 21.866-18.417 38.99-40.27 38.99-22.248 0-40.347-18.098-40.347-40.347V205.665c0-22.25 18.1-40.348 40.348-40.348 22.243 0 40.342 18.098 40.343 40.346l-.023 215.676zm51.906-20.556c0 11.936-9.707 21.642-21.642 21.642a21.49 21.49 0 0 1-12.337-3.87v-205.9a21.466 21.466 0 0 1 12.336-3.875c11.935 0 21.642 9.708 21.642 21.64v170.362zm36.33-51.705a.54.54 0 0 1-.542.54H555.73v-70.42h17.886a.54.54 0 0 1 .54.54v69.34z"/></svg>