<svg id="Livello_1" data-name="Livello 1" xmlns="http://www.w3.org/2000/svg" viewBox="0 0 303.62 77.52"><defs><style>.cls-1{fill:#163e71}</style></defs><title>LogoAbaco</title><path class="cls-1" d="M237.31 62.22a12.82 12.82 0 0 1 2.62.17 2.48 2.48 0 0 1 1.23.57 2.06 2.06 0 0 1 .74 1.2 17.92 17.92 0 0 1 .09 1.83v8.37a4.32 4.32 0 0 1-.14 1.45 1.69 1.69 0 0 1-.75 1 4.09 4.09 0 0 1-1.74.6 17.91 17.91 0 0 1-2 .08h-11.34c-.33 0-.49-.11-.49-.33v-15h11.78zm1.64 3.62a.86.86 0 0 0-.46-.75 2 2 0 0 0-1.14-.23l-8 .05h-.81v8.88c0 .88 1.07 1.08 1.39 1.08h7.37a2.23 2.23 0 0 0 1.2-.26.81.81 0 0 0 .44-.83v-7.94zM261.22 74.88a.76.76 0 0 1 .48.76v1.52c0 .22-.16.33-.49.33h-9.69a17.83 17.83 0 0 1-2.19 0 3.49 3.49 0 0 1-1.74-.57 2.06 2.06 0 0 1-.86-1.23 6.78 6.78 0 0 1-.1-1.43V64.09 62.2h14.55c.33 0 .49.11.49.33v1.53a.88.88 0 0 1-.49.84h-9.69a3 3 0 0 0-1.43.33.93.93 0 0 0-.46.76v2.47c0 .22.16.33.49.33h11.08a.5.5 0 0 1 .5.5v1.35c0 .22.1.75-.49.73h-11.52v2.4a1 1 0 0 0 .41.83 3.12 3.12 0 0 0 1.47.28h9.69zM135.79 62.22h2.29l4 4.55a.29.29 0 0 0 .2.12.33.33 0 0 0 .24-.12l4-4.56h2.55l-.25.26-5.34 5.94a.36.36 0 0 0-.11.26v3.42c0 .14-.11.22-.32.22h-1.51c-.22 0-.32-.07-.32-.22V68.7a.43.43 0 0 0-.11-.27l-5.38-6-.23-.25M170.28 73.74a6.13 6.13 0 0 1-.25 2.32 2.05 2.05 0 0 1-.79.86 3.44 3.44 0 0 1-1.4.48 17.6 17.6 0 0 1-2.22.1h-11.11v-2.64h12.76v-2.82a.91.91 0 0 0-.49-.77 2.06 2.06 0 0 0-1.15-.32h-7.33a5.21 5.21 0 0 1-1.75-.28 5 5 0 0 1-1.41-.75 3.63 3.63 0 0 1-.95-1.06 2.3 2.3 0 0 1-.35-1.18v-2.19-1.42-1.83h16.32v2.71h-13.32v2.33a.92.92 0 0 0 .48.78 1.39 1.39 0 0 0 .93.32h7.81a11.37 11.37 0 0 1 2.15.13 3.13 3.13 0 0 1 1.39.67 2.22 2.22 0 0 1 .69 1.6v3zM191.16 62.57v14.59c0 .22-.16.33-.49.33h-3.31a.75.75 0 0 1-.59-.22l-8.58-11.11a.58.58 0 0 0-.41-.17.32.32 0 0 0-.32.29v11.18a4.08 4.08 0 0 1-2.27-.76 2.58 2.58 0 0 1-.74-1.64V62.24h3.8a.75.75 0 0 1 .59.22l8.58 11.13a.35.35 0 0 0 .26.17c.13 0 .2-.09.2-.28V62.57c0-.22.16-.33.49-.33h2.29c.33 0 .5.11.5.33zM220.62 62.55v14.61c0 .22-.16.33-.49.33h-2.29c-.33 0-.49-.11-.49-.33V62.55c0-.22.16-.33.49-.33h2.29c.33 0 .49.11.49.33zM277.73 62.22c.68 0 1.08 0 1.94.06a3.84 3.84 0 0 1 1.77.58 1.91 1.91 0 0 1 .85 1.22 7.75 7.75 0 0 1 .1 1.42V71.2c-.2.06-1.49 0-2.16 0h-1.48l5.98 5.96a.2.2 0 0 1 0 .11.2.2 0 0 1-.18.16 1.22 1.22 0 0 1-.34.05h-2.75a.31.31 0 0 1-.28-.09 1.11 1.11 0 0 0-.21-.24l-4.78-4.8a6.48 6.48 0 0 0-.92-.71 2.62 2.62 0 0 0-1.28-.38h-4.26q-.49 0-.49.33v5.57c0 .22-.16.33-.49.33h-2.29c-.33 0-.49-.11-.49-.33V65.49v-3.28h11.76zm1.64 3.69a.89.89 0 0 0-.33-.84 2.81 2.81 0 0 0-1.37-.17h-8.72v2.69a1.14 1.14 0 0 0 1.37.93h9.05v-2.61zM199.2 77.34h-3.47v-15h12.45q3.46 0 3.46 2.58v12.42h-3.46v-6.18h-9v6.19zm0-8.77h9v-2.58q0-1-1.39-1h-7.61v3.61zM300.04 62.26q3.57 0 3.57 2.63V77.5h-12.88q-3.58 0-3.57-2.63V62.26h12.87zm-9.85 2.63v8.93q0 1 1.6 1h8.81v-8.88q0-1.05-1.6-1h-8.81zM127.15 72.16v-10h5.73a2 2 0 0 1 2.16 2.06v2.06s2.69-.32 2.69 1.77v4.11h-10.58zm2.14-1.37h6.33v-1.91a.85.85 0 0 0-1-.89h-5.36v2.81zm0-5.22a.91.91 0 0 0 .84 1h2.82v-2a.82.82 0 0 0-.85-1h-2.83s-.03 1.09-.01 2.01zM190.73 54.31V11.82q0-11.8 14.17-11.8h34v11.8h-28.28q-5.67 0-5.67 4.72v26h34v11.8h-48.22zM290.88.07q12.74 0 12.74 9.36v44.92h-45.89q-12.74 0-12.74-9.36V.07h45.85zm-33.15 9.36v31.82q0 3.74 5.09 3.74h28V13.16q0-3.74-5.09-3.74h-28zM139.78 54.35h-12.55V.02h45.21Q185 .02 185 9.39v45h-12.56V31.87h-32.66v22.48zm0-31.85h32.66v-9.34q0-3.75-5-3.75h-27.66V22.5zM12.56 54.35H0V.02h45.21q12.52 0 12.52 9.36v45H45.21V31.87H12.56v22.48zm0-31.85h32.65v-9.34q0-3.75-5-3.75H12.56V22.5zM63.55 54.33V0h31.29c12.37 0 11.79 11.24 11.79 11.24v11.24s14.81-2.05 14.81 9.37v22.48H63.55zm12.56-9.7h32.62v-9.37c0-2.5-1.67-3.75-5-3.59H76.11v13zm0-26.71a4.32 4.32 0 0 0 4.09 4.38l13.76.07v-9c0-4.71-4.13-4.34-4.13-4.34l-13.75.13s-.03 4.58.05 8.76z"/></svg>