<svg version="1.1" id="Layer_1" xmlns="http://www.w3.org/2000/svg" x="0" y="0" width="600" height="600" viewBox="0 0 600 600" fill="#fff" xml:space="preserve"><path d="M569.23 387.247c.365-2.24.545-4.466.545-6.647 0-17.226-10.518-32.893-26.36-39.552v-17.353c0-15.648-12.732-28.38-28.383-28.38H93.256c-15.65 0-28.383 12.732-28.383 28.38v17.353c-15.842 6.66-26.36 22.323-26.36 39.552 0 2.188.18 4.415.54 6.647-12.602 2.134-22.086 13.09-22.086 26.146v68.684c0 14.64 11.908 26.55 26.55 26.55h21.355v37.462c0 5.8 4.72 10.522 10.523 10.522s10.523-4.72 10.523-10.523v-37.463H522.36v37.462c0 5.8 4.722 10.522 10.524 10.522 5.807 0 10.528-4.72 10.528-10.523v-37.463h21.35c14.642 0 26.555-11.91 26.555-26.55v-68.684c.003-13.056-9.48-24.012-22.088-26.146zm-42.388-28.53c4.453 0 8.752 1.35 12.433 3.897 5.915 4.108 9.447 10.832 9.447 17.986 0 2.69-.51 5.354-1.508 7.918a21.9 21.9 0 0 1-15.3 13.345c-8.85 2.098-17.14-1.16-22.366-7.916a21.903 21.903 0 0 1-3.08-5.43 21.738 21.738 0 0 1-1.507-7.917c0-11.375 8.887-20.95 20.255-21.798.54-.04 1.076-.085 1.627-.085zM85.92 323.697c0-4.045 3.29-7.335 7.336-7.335H515.03c4.043 0 7.332 3.29 7.332 7.334v14.258c-21.757 2.25-38.453 20.52-38.453 42.647 0 3.105.365 6.287 1.085 9.46.216.964.47 1.922.752 2.867H122.535c.283-.945.535-1.902.752-2.865a42.797 42.797 0 0 0 1.086-9.46c0-22.128-16.696-40.397-38.453-42.647v-14.26zm-16.908 38.918c4.134-2.865 9-4.175 14.076-3.812 11.347.85 20.238 10.425 20.238 21.798 0 2.69-.51 5.355-1.508 7.92a21.805 21.805 0 0 1-3.084 5.43c-5.205 6.732-13.535 10.012-22.365 7.914a21.91 21.91 0 0 1-15.302-13.345 21.738 21.738 0 0 1-1.508-7.92c0-7.156 3.532-13.88 9.452-17.985zm501.262 119.463a5.512 5.512 0 0 1-5.51 5.504H43.52a5.512 5.512 0 0 1-5.504-5.504v-68.684a5.51 5.51 0 0 1 5.504-5.504h4.855c8.217 9.957 20.192 15.64 33.068 15.64a42.885 42.885 0 0 0 26.942-9.554H499.9c7.625 6.17 17.154 9.555 26.94 9.555 12.877 0 24.852-5.683 33.07-15.64h4.854c3.038 0 5.51 2.47 5.51 5.504v68.684zM79.037 75.6c5.05 0 9.16-4.107 9.16-9.158v-13.11c0-5.048-4.11-9.156-9.16-9.156-5.047 0-9.157 4.108-9.157 9.157v13.11c0 5.05 4.11 9.158 9.157 9.158zM69.88 159.388v13.107c0 5.05 4.11 9.16 9.157 9.16 5.05 0 9.16-4.11 9.16-9.16v-13.107c0-5.05-4.11-9.16-9.16-9.16-5.047 0-9.157 4.11-9.157 9.16zM116.353 112.915c0 5.05 4.11 9.16 9.16 9.16h13.106c5.05 0 9.16-4.11 9.16-9.16s-4.11-9.16-9.16-9.16h-13.106c-5.05 0-9.16 4.11-9.16 9.16zM32.564 122.074c5.05 0 9.16-4.108 9.16-9.16s-4.11-9.158-9.16-9.158H19.46c-5.052 0-9.162 4.108-9.162 9.16s4.11 9.158 9.16 9.158h13.106zM111.808 89.303c2.824 0 5.28-1.147 6.523-2.895l8.955-8.952c1.667-1.665 2.62-3.996 2.62-6.397s-.953-4.733-2.616-6.39c-1.602-1.605-3.932-2.526-6.396-2.526h-.004c-2.463 0-4.79.92-6.387 2.52l-9.248 9.24c-3.45 3.468-3.446 9.32.012 12.787 1.664 1.662 4.048 2.613 6.54 2.613zM39.726 139.44l-9.24 9.24c-3.455 3.46-3.446 9.314.017 12.798 1.667 1.653 4.048 2.6 6.532 2.6 2.264 0 4.6-.977 6.246-2.617l9.233-9.23c1.667-1.666 2.62-3.997 2.62-6.398 0-2.395-.953-4.726-2.624-6.397-3.47-3.458-9.325-3.458-12.784.005zM105.255 139.447c-3.45 3.467-3.446 9.32.008 12.78l9.236 9.233c1.658 1.665 4.042 2.62 6.543 2.62 2.895 0 5.387-1.2 6.702-3.116a9.07 9.07 0 0 0 2.16-5.895c0-2.404-.957-4.735-2.62-6.394l-9.232-9.238c-3.467-3.463-9.323-3.463-12.798.01zM39.705 86.666l.025.027c1.663 1.66 4.048 2.61 6.54 2.61 2.758 0 5.084-1.193 6.602-3.294a9.04 9.04 0 0 0 2.26-6.012c0-2.403-.958-4.734-2.62-6.393l-9.233-9.234c-1.68-1.683-3.953-2.61-6.392-2.61h-.004c-2.44 0-4.71.927-6.4 2.615-3.454 3.463-3.47 9.296-.057 12.713l9.278 9.578zM79.04 143.498c16.863 0 30.582-13.72 30.582-30.583 0-16.862-13.72-30.58-30.58-30.58-16.867 0-30.586 13.718-30.586 30.58 0 16.865 13.72 30.583 30.585 30.583zm0-45.68c8.328 0 15.1 6.77 15.1 15.097s-6.77 15.098-15.1 15.098-15.1-6.772-15.1-15.098 6.774-15.098 15.1-15.098z"/></svg>