<svg version="1.1" id="Layer_1" xmlns="http://www.w3.org/2000/svg" x="0" y="0" width="600" height="600" viewBox="0 0 600 600" fill="#fff" xml:space="preserve"><path d="M569.229 387.247c.366-2.24.546-4.466.546-6.647 0-17.226-10.518-32.893-26.36-39.552v-17.353c0-15.648-12.732-28.38-28.383-28.38H93.256c-15.651 0-28.383 12.732-28.383 28.38v17.353c-15.842 6.659-26.36 22.323-26.36 39.552 0 2.188.18 4.415.541 6.647-12.603 2.134-22.087 13.09-22.087 26.146v68.684c0 14.639 11.908 26.55 26.55 26.55h21.355v37.462c0 5.802 4.721 10.523 10.523 10.523s10.523-4.721 10.523-10.523v-37.462h436.443v37.462c0 5.802 4.721 10.523 10.523 10.523 5.807 0 10.528-4.721 10.528-10.523v-37.462h21.35c14.642 0 26.555-11.911 26.555-26.55v-68.684c.003-13.056-9.48-24.012-22.088-26.146zm-42.387-28.53c4.453 0 8.752 1.349 12.433 3.897 5.915 4.108 9.447 10.832 9.447 17.986 0 2.69-.51 5.354-1.508 7.918a21.901 21.901 0 0 1-15.301 13.345c-8.85 2.098-17.139-1.161-22.365-7.916a21.903 21.903 0 0 1-3.079-5.429 21.738 21.738 0 0 1-1.508-7.918c0-11.375 8.886-20.949 20.254-21.798.541-.041 1.076-.085 1.627-.085zM85.92 323.696c0-4.044 3.29-7.334 7.336-7.334h421.775c4.042 0 7.331 3.29 7.331 7.334v14.258c-21.757 2.25-38.453 20.519-38.453 42.647 0 3.104.366 6.286 1.086 9.458.216.965.469 1.923.752 2.868H122.535c.283-.945.535-1.902.752-2.865a42.797 42.797 0 0 0 1.086-9.46c0-22.128-16.696-40.397-38.453-42.647v-14.259zm-16.908 38.919c4.134-2.865 8.999-4.175 14.076-3.812 11.347.849 20.238 10.425 20.238 21.798 0 2.69-.51 5.354-1.508 7.918a21.805 21.805 0 0 1-3.084 5.432c-5.205 6.731-13.535 10.011-22.365 7.913a21.91 21.91 0 0 1-15.301-13.345 21.738 21.738 0 0 1-1.508-7.918c0-7.157 3.532-13.88 9.452-17.986zm501.262 119.463a5.512 5.512 0 0 1-5.509 5.504H43.518a5.512 5.512 0 0 1-5.504-5.504v-68.684a5.511 5.511 0 0 1 5.504-5.504h4.855c8.217 9.957 20.192 15.641 33.068 15.641a42.885 42.885 0 0 0 26.941-9.555H499.9c7.625 6.17 17.154 9.555 26.941 9.555 12.876 0 24.851-5.684 33.068-15.641h4.855a5.512 5.512 0 0 1 5.509 5.504v68.684zM79.037 75.601c5.051 0 9.161-4.108 9.161-9.159V53.333c0-5.049-4.11-9.157-9.161-9.157-5.047 0-9.157 4.108-9.157 9.157v13.109c0 5.051 4.11 9.159 9.157 9.159zM69.88 159.388v13.107c0 5.051 4.11 9.161 9.157 9.161 5.051 0 9.161-4.11 9.161-9.161v-13.107c0-5.051-4.11-9.159-9.161-9.159-5.047 0-9.157 4.108-9.157 9.159zM116.353 112.915c0 5.051 4.11 9.159 9.161 9.159h13.105c5.051 0 9.161-4.108 9.161-9.159s-4.11-9.159-9.161-9.159h-13.105c-5.051 0-9.161 4.108-9.161 9.159zM32.564 122.074c5.051 0 9.161-4.108 9.161-9.159s-4.11-9.159-9.161-9.159H19.459c-5.051 0-9.161 4.108-9.161 9.159s4.11 9.159 9.161 9.159h13.105zM111.808 89.303c2.824 0 5.279-1.147 6.523-2.895l8.954-8.952c1.667-1.665 2.621-3.996 2.621-6.397s-.954-4.732-2.617-6.389c-1.601-1.605-3.931-2.526-6.395-2.526h-.004c-2.463 0-4.79.921-6.387 2.521l-9.248 9.24c-3.45 3.467-3.446 9.319.012 12.786 1.664 1.661 4.048 2.612 6.541 2.612zM39.726 139.44l-9.24 9.24c-3.455 3.459-3.446 9.314.017 12.798 1.667 1.653 4.048 2.6 6.532 2.6 2.264 0 4.599-.977 6.246-2.617l9.232-9.232c1.667-1.665 2.621-3.996 2.621-6.397 0-2.395-.954-4.726-2.625-6.397-3.468-3.458-9.324-3.458-12.783.005zM105.255 139.447c-3.45 3.467-3.446 9.319.008 12.779l9.236 9.234c1.659 1.665 4.043 2.619 6.544 2.619 2.895 0 5.387-1.199 6.702-3.115a9.07 9.07 0 0 0 2.161-5.895c0-2.403-.958-4.734-2.621-6.393l-9.232-9.238c-3.467-3.463-9.323-3.463-12.798.009zM39.705 86.666l.025.027c1.663 1.659 4.048 2.611 6.54 2.611 2.758 0 5.084-1.194 6.602-3.295a9.04 9.04 0 0 0 2.26-6.011c0-2.403-.958-4.734-2.621-6.393l-9.232-9.234c-1.68-1.684-3.952-2.611-6.391-2.611h-.004c-2.439 0-4.711.927-6.399 2.615-3.455 3.463-3.471 9.296-.058 12.713l9.278 9.578zM79.041 143.498c16.862 0 30.581-13.719 30.581-30.583 0-16.862-13.719-30.581-30.581-30.581-16.866 0-30.585 13.719-30.585 30.581 0 16.865 13.719 30.583 30.585 30.583zm0-45.681c8.327 0 15.1 6.772 15.1 15.098s-6.772 15.098-15.1 15.098-15.1-6.772-15.1-15.098 6.773-15.098 15.1-15.098z"/></svg>