<svg version="1.1" id="Layer_1" xmlns="http://www.w3.org/2000/svg" x="0" y="0" width="600" height="600" viewBox="0 0 600 600" fill="#fff" xml:space="preserve"><path d="M300 508.836c-113.883 0-206.534-92.651-206.534-206.534S186.117 95.767 300 95.767s206.534 92.651 206.534 206.534S413.883 508.836 300 508.836zm0-392.435c-102.505 0-185.9 83.395-185.9 185.9s83.395 185.9 185.9 185.9 185.9-83.395 185.9-185.9-83.395-185.9-185.9-185.9zm0 274.703c-48.972 0-88.809-39.837-88.809-88.802S251.028 213.5 300 213.5c48.965 0 88.802 39.837 88.802 88.802S348.965 391.104 300 391.104zm0-156.971c-37.594 0-68.175 30.581-68.175 68.169S262.406 370.47 300 370.47c37.587 0 68.169-30.581 68.169-68.169S337.587 234.133 300 234.133z"/><path d="M272.527 316.254c0-8.721 3.924-13.953 11.337-17.005-5.232-3.488-9.157-7.849-9.157-15.261 0-10.901 10.029-19.186 24.854-19.186s24.854 8.285 24.854 19.186c0 7.413-3.488 12.209-9.157 15.261 6.977 3.924 11.337 8.285 11.337 16.569 0 13.081-11.337 20.494-27.034 20.494s-27.034-7.413-27.034-20.058zm39.244-.872c0-5.668-5.232-8.721-12.209-8.721-6.977 0-12.209 3.052-12.209 8.721 0 4.796 4.36 8.721 12.209 8.721 7.848 0 12.209-3.925 12.209-8.721zm-2.181-29.65c0-4.36-3.924-8.285-10.029-8.285-6.104 0-10.029 3.924-10.029 8.285 0 4.796 3.924 8.721 10.029 8.721 6.105-.001 10.029-3.925 10.029-8.721z"/></svg>