<svg version="1.1" id="Layer_1" xmlns="http://www.w3.org/2000/svg" x="0" y="0" width="600" height="600" viewBox="0 0 600 600" fill="#fff" xml:space="preserve"><path d="M198.404 105.15h-76.887c-6.05 0-10.97 4.92-10.97 10.968 0 6.05 4.92 10.97 10.97 10.97h76.887c6.05 0 10.97-4.92 10.97-10.97 0-6.047-4.92-10.967-10.97-10.967zM198.404 142.12h-76.887c-6.05 0-10.97 4.92-10.97 10.97 0 6.048 4.92 10.968 10.97 10.968h76.887c6.05 0 10.97-4.92 10.97-10.967 0-6.05-4.92-10.97-10.97-10.97zM198.404 179.088h-76.887c-6.05 0-10.97 4.92-10.97 10.97 0 6.052 4.92 10.972 10.97 10.972h76.887c6.05 0 10.97-4.92 10.97-10.97 0-6.052-4.92-10.972-10.97-10.972zM123.304 287.7c-6.05 0-10.97 4.92-10.97 10.966v60.6c0 6.05 4.92 10.97 10.97 10.97 6.05 0 10.97-4.92 10.97-10.97v-60.6c0-6.048-4.92-10.967-10.97-10.967zM340.558 105.15H263.67c-6.048 0-10.97 4.92-10.97 10.968 0 6.05 4.922 10.97 10.97 10.97h76.888c6.05 0 10.97-4.92 10.97-10.97 0-6.047-4.92-10.967-10.97-10.967zM340.558 142.12H263.67c-6.048 0-10.97 4.92-10.97 10.97 0 6.048 4.922 10.968 10.97 10.968h76.888c6.05 0 10.97-4.92 10.97-10.967 0-6.05-4.92-10.97-10.97-10.97zM340.558 179.088H263.67c-6.048 0-10.97 4.92-10.97 10.97 0 6.052 4.922 10.972 10.97 10.972h76.888c6.05 0 10.97-4.92 10.97-10.97 0-6.052-4.92-10.972-10.97-10.972zM265.458 287.7c-6.05 0-10.97 4.92-10.97 10.966v60.6c0 6.05 4.92 10.97 10.97 10.97 6.05 0 10.97-4.92 10.97-10.97v-60.6c0-6.048-4.92-10.967-10.97-10.967z"/><path d="M501.315 56.953H387.428c-5.08 0-10.033 1.575-14.186 4.43-4.153-2.855-9.106-4.43-14.182-4.43H245.174c-5.056 0-9.99 1.564-14.133 4.394-4.143-2.83-9.08-4.394-14.134-4.394H103.02c-13.843 0-25.104 11.26-25.104 25.104V515.27c0 13.842 11.26 25.103 25.104 25.103h113.887c5.056 0 9.99-1.564 14.135-4.394 4.14 2.83 9.077 4.393 14.133 4.393H359.06a25.084 25.084 0 0 0 14.188-4.43c4.155 2.853 9.108 4.43 14.18 4.43h113.887c13.843 0 25.104-11.26 25.104-25.102V82.058c0-13.843-11.262-25.104-25.105-25.104zM220.07 515.27a3.172 3.172 0 0 1-3.168 3.17H103.02a3.172 3.172 0 0 1-3.168-3.17V82.058c0-1.75 1.422-3.17 3.168-3.17h113.887c1.75 0 3.17 1.42 3.17 3.17l-.007 433.214zm142.154 0a3.172 3.172 0 0 1-3.168 3.17H245.174a3.173 3.173 0 0 1-3.17-3.17V82.058c0-1.75 1.42-3.17 3.17-3.17H359.06c1.75 0 3.17 1.42 3.17 3.17l-.006 433.214zm142.255 0a3.173 3.173 0 0 1-3.172 3.17h-113.88a3.173 3.173 0 0 1-3.17-3.17V82.058c0-1.75 1.42-3.17 3.17-3.17h113.887c1.75 0 3.17 1.42 3.17 3.17l-.006 433.214z"/><path d="M482.82 105.15h-76.896c-6.05 0-10.97 4.92-10.97 10.968 0 6.05 4.92 10.97 10.97 10.97h76.89c6.048 0 10.968-4.92 10.968-10.97 0-6.047-4.918-10.967-10.962-10.967zM482.82 142.12h-76.896c-6.05 0-10.97 4.92-10.97 10.97 0 6.048 4.92 10.968 10.97 10.968h76.89c6.048 0 10.968-4.92 10.968-10.967 0-6.05-4.918-10.97-10.962-10.97zM482.82 179.088h-76.896c-6.05 0-10.97 4.92-10.97 10.97 0 6.052 4.92 10.972 10.97 10.972h76.89c6.048 0 10.968-4.92 10.968-10.97 0-6.052-4.918-10.972-10.962-10.972zM407.717 287.7c-6.05 0-10.97 4.92-10.97 10.966v60.6c0 6.05 4.92 10.97 10.97 10.97 6.05 0 10.97-4.92 10.97-10.97v-60.608c-.01-6.044-4.93-10.96-10.97-10.96z"/></svg>