<svg version="1.1" id="Layer_1" xmlns="http://www.w3.org/2000/svg" x="0" y="0" width="600" height="600" viewBox="0 0 600 600" fill="#fff" xml:space="preserve"><path d="M198.404 105.151h-76.887c-6.049 0-10.971 4.92-10.971 10.967 0 6.051 4.922 10.971 10.971 10.971h76.887c6.049 0 10.971-4.92 10.971-10.971 0-6.047-4.922-10.967-10.971-10.967zM198.404 142.12h-76.887c-6.049 0-10.971 4.92-10.971 10.971 0 6.047 4.922 10.967 10.971 10.967h76.887c6.049 0 10.971-4.92 10.971-10.967 0-6.052-4.922-10.971-10.971-10.971zM198.404 179.088h-76.887c-6.049 0-10.971 4.92-10.971 10.971s4.922 10.971 10.971 10.971h76.887c6.049 0 10.971-4.92 10.971-10.971s-4.922-10.971-10.971-10.971zM123.304 287.699c-6.049 0-10.969 4.92-10.969 10.967v60.6c0 6.051 4.92 10.971 10.969 10.971 6.049 0 10.969-4.92 10.969-10.971v-60.6c0-6.048-4.92-10.967-10.969-10.967zM340.558 105.151h-76.887c-6.049 0-10.971 4.92-10.971 10.967 0 6.051 4.922 10.971 10.971 10.971h76.887c6.049 0 10.971-4.92 10.971-10.971 0-6.047-4.921-10.967-10.971-10.967zM340.558 142.12h-76.887c-6.049 0-10.971 4.92-10.971 10.971 0 6.047 4.922 10.967 10.971 10.967h76.887c6.049 0 10.971-4.92 10.971-10.967 0-6.052-4.921-10.971-10.971-10.971zM340.558 179.088h-76.887c-6.049 0-10.971 4.92-10.971 10.971s4.922 10.971 10.971 10.971h76.887c6.049 0 10.971-4.92 10.971-10.971s-4.921-10.971-10.971-10.971zM265.458 287.699c-6.049 0-10.969 4.92-10.969 10.967v60.6c0 6.051 4.92 10.971 10.969 10.971 6.049 0 10.969-4.92 10.969-10.971v-60.6c0-6.048-4.919-10.967-10.969-10.967z"/><path d="M501.315 56.953H387.428c-5.08 0-10.033 1.575-14.186 4.429-4.153-2.854-9.106-4.429-14.182-4.429H245.174c-5.056 0-9.991 1.564-14.133 4.394-4.144-2.83-9.082-4.394-14.135-4.394H103.02c-13.843 0-25.104 11.261-25.104 25.104v433.214c0 13.841 11.261 25.102 25.104 25.102h113.887c5.056 0 9.991-1.564 14.135-4.394 4.14 2.83 9.077 4.394 14.133 4.394H359.06a25.084 25.084 0 0 0 14.188-4.429c4.155 2.852 9.108 4.429 14.18 4.429h113.887c13.843 0 25.104-11.261 25.104-25.102V82.057c0-13.843-11.261-25.104-25.104-25.104zM220.07 515.271a3.172 3.172 0 0 1-3.168 3.168H103.02a3.172 3.172 0 0 1-3.168-3.168V82.057a3.173 3.173 0 0 1 3.168-3.171h113.887a3.174 3.174 0 0 1 3.171 3.171l-.008 433.214zm142.154 0a3.172 3.172 0 0 1-3.168 3.168H245.174a3.173 3.173 0 0 1-3.171-3.168V82.057a3.174 3.174 0 0 1 3.171-3.171H359.06a3.174 3.174 0 0 1 3.171 3.171l-.007 433.214zm142.255 0a3.173 3.173 0 0 1-3.171 3.168h-113.88a3.173 3.173 0 0 1-3.171-3.168V82.057a3.174 3.174 0 0 1 3.171-3.171h113.887a3.174 3.174 0 0 1 3.171 3.171l-.007 433.214z"/><path d="M482.82 105.151h-76.896c-6.049 0-10.969 4.92-10.969 10.967 0 6.051 4.92 10.971 10.969 10.971h76.889c6.049 0 10.969-4.92 10.969-10.971 0-6.047-4.918-10.967-10.962-10.967zM482.82 142.12h-76.896c-6.049 0-10.969 4.92-10.969 10.971 0 6.047 4.92 10.967 10.969 10.967h76.889c6.049 0 10.969-4.92 10.969-10.967 0-6.052-4.918-10.971-10.962-10.971zM482.82 179.088h-76.896c-6.049 0-10.969 4.92-10.969 10.971s4.92 10.971 10.969 10.971h76.889c6.049 0 10.969-4.92 10.969-10.971s-4.918-10.971-10.962-10.971zM407.717 287.699c-6.049 0-10.969 4.92-10.969 10.967v60.6c0 6.051 4.92 10.971 10.969 10.971 6.049 0 10.969-4.92 10.969-10.971v-60.608c-.009-6.044-4.93-10.959-10.969-10.959z"/></svg>