<svg version="1.1" id="Layer_1" xmlns="http://www.w3.org/2000/svg" x="0" y="0" width="600" height="600" viewBox="0 0 600 600" fill="#fff" xml:space="preserve"><path d="M227.522 415.313c-20.413 0-37.024-16.617-37.024-37.042 0-20.419 16.611-37.03 37.024-37.03 20.419 0 37.024 16.611 37.024 37.03 0 20.425-16.605 37.042-37.024 37.042zm0-54.411c-9.576 0-17.363 7.787-17.363 17.369s7.787 17.381 17.363 17.381 17.363-7.793 17.363-17.381c0-9.576-7.787-17.369-17.363-17.369zM385.917 415.313c-20.425 0-37.042-16.617-37.042-37.042 0-20.419 16.617-37.03 37.042-37.03 20.419 0 37.024 16.611 37.024 37.03 0 20.425-16.611 37.042-37.024 37.042zm0-54.411c-9.582 0-17.381 7.787-17.381 17.369s7.793 17.381 17.381 17.381c9.576 0 17.363-7.793 17.363-17.381 0-9.576-7.793-17.369-17.363-17.369z"/><path d="M464.774 189.265c0-1.054-.207-2.049-.515-2.997v-10.363c0-30.723-24.991-55.708-55.714-55.708H204.888c-30.723 0-55.714 24.991-55.714 55.708v233.272c0 30.723 24.991 55.708 55.714 55.708h203.657c30.723 0 55.714-24.991 55.714-55.708V285.894c.308-.948.515-1.942.515-2.997v-93.632zm-20.176 83.802h-127.53v-73.971h127.53v73.971zM204.894 139.858h203.657c19.874 0 36.047 16.167 36.047 36.047v3.53h-137.36c-.089 0-.172.024-.261.03-.089-.006-.172-.03-.261-.03H168.841v-3.53c0-19.874 16.173-36.047 36.053-36.047zm-36.053 59.238h128.045v73.971H168.841v-73.971zm239.704 246.129H204.888c-19.874 0-36.047-16.167-36.047-36.047V292.734h137.875c.089 0 .172-.024.261-.03.089.006.172.03.261.03h137.36v116.45c0 19.874-16.173 36.041-36.053 36.041zM200.322 548.202a9.796 9.796 0 0 1-4.193-.942c-4.909-2.315-7.012-8.178-4.696-13.088l23.404-49.579c2.315-4.909 8.184-7.012 13.088-4.69 4.909 2.315 7.012 8.178 4.696 13.088l-23.404 49.579c-1.676 3.553-5.211 5.632-8.895 5.632zM413.117 548.202c-3.683 0-7.219-2.079-8.895-5.632L380.8 492.992c-2.321-4.909-.219-10.766 4.69-13.088 4.909-2.315 10.772-.225 13.088 4.69L422 534.173c2.321 4.909.219 10.766-4.69 13.088a9.812 9.812 0 0 1-4.193.941zM420.667 82.137l-27.194-24.789c-2.15-1.972-4.939-2.76-7.633-2.481-.296-.024-.58-.089-.876-.089H226.592c-.231 0-.438.053-.663.071-.349.024-.693.041-1.036.107a7.88 7.88 0 0 0-.918.225 9.316 9.316 0 0 0-.924.284c-.308.124-.598.266-.894.415a11.82 11.82 0 0 0-.811.438c-.308.195-.586.42-.865.645-.166.13-.349.231-.509.373l-27.217 24.789c-4.015 3.654-4.305 9.878-.651 13.893a9.823 9.823 0 0 0 7.272 3.21 9.785 9.785 0 0 0 6.615-2.564l24.404-22.225h23.546v21.834c0 5.43 4.4 9.83 9.83 9.83s9.83-4.4 9.83-9.83V74.444h60.209v21.834c0 5.43 4.4 9.83 9.83 9.83s9.83-4.4 9.83-9.83V74.444h29.568l24.381 22.219a9.777 9.777 0 0 0 6.621 2.57 9.823 9.823 0 0 0 7.272-3.21c3.66-4.014 3.37-10.232-.645-13.886z"/></svg>