<svg version="1.1" id="Layer_1" xmlns="http://www.w3.org/2000/svg" x="0" y="0" width="600" height="600" viewBox="0 0 600 600" fill="#fff" xml:space="preserve"><path d="M528.033 56.268H86.371C63.008 56.268 44 75.278 44 98.642v69.474c0 23.363 19.008 42.369 42.371 42.369h1.938v297.289c0 23.596 19.197 42.795 42.795 42.795h352.198c23.596 0 42.795-19.199 42.795-42.795v-297.29h1.935c23.363 0 42.374-19.005 42.374-42.369V98.642c.001-23.364-19.01-42.374-42.373-42.374zm-23.225 451.505c0 11.859-9.647 21.506-21.506 21.506H131.105c-11.859 0-21.506-9.647-21.506-21.506V210.484h395.21v297.289zm44.309-339.658c0 11.621-9.458 21.079-21.084 21.079H86.372c-11.623 0-21.082-9.458-21.082-21.079V98.642c0-11.626 9.458-21.084 21.082-21.084h441.662c11.626 0 21.084 9.458 21.084 21.084v69.473z"/><path d="M254.476 315.302h105.455c22.972 0 41.662-18.689 41.662-41.659 0-22.975-18.689-41.664-41.662-41.664H254.476c-22.972 0-41.661 18.689-41.661 41.664-.001 22.969 18.688 41.659 41.661 41.659zm0-62.034h105.455c11.232 0 20.372 9.142 20.372 20.375 0 11.232-9.14 20.369-20.372 20.369H254.476c-11.232 0-20.372-9.137-20.372-20.369 0-11.233 9.139-20.375 20.372-20.375z"/></svg>