<svg version="1.1" id="Layer_1" xmlns="http://www.w3.org/2000/svg" x="0" y="0" width="600" height="600" viewBox="0 0 600 600" fill="#fff" xml:space="preserve"><path d="M528.033 56.268H86.37C63.01 56.268 44 75.278 44 98.642v69.474c0 23.363 19.008 42.37 42.37 42.37h1.94v297.288c0 23.596 19.196 42.795 42.794 42.795h352.198c23.596 0 42.795-19.2 42.795-42.796v-297.29h1.935c23.363 0 42.374-19.005 42.374-42.37V98.643c0-23.364-19.01-42.374-42.373-42.374zm-23.225 451.505c0 11.86-9.647 21.506-21.506 21.506H131.105c-11.86 0-21.506-9.648-21.506-21.507v-297.29h395.21v297.29zm44.31-339.658c0 11.62-9.46 21.08-21.085 21.08H86.373c-11.624 0-21.083-9.46-21.083-21.08V98.642c0-11.626 9.458-21.084 21.082-21.084h441.662c11.626 0 21.084 9.458 21.084 21.084v69.473z"/><path d="M254.476 315.302H359.93c22.973 0 41.663-18.69 41.663-41.66 0-22.974-18.69-41.663-41.662-41.663H254.477c-22.972 0-41.66 18.688-41.66 41.663-.002 22.97 18.687 41.66 41.66 41.66zm0-62.034H359.93c11.233 0 20.373 9.142 20.373 20.375 0 11.232-9.14 20.37-20.372 20.37H254.477c-11.232 0-20.372-9.138-20.372-20.37 0-11.233 9.14-20.375 20.372-20.375z"/></svg>