<svg version="1.1" id="Layer_1" xmlns="http://www.w3.org/2000/svg" x="0" y="0" width="600" height="600" viewBox="0 0 600 600" fill="#fff" xml:space="preserve"><path d="M533.846 174.216H239.31v-50.558h35.756c11.62 0 21.438-9.818 21.438-21.438v-1.7c0-11.62-9.818-21.438-21.438-21.438H158.98c-11.618 0-21.437 9.818-21.437 21.438v1.7c0 11.62 9.818 21.438 21.438 21.438h35.756v50.558H74.04c-11.083 0-20.03 7.835-21.4 19.037l-.6.607v146.76c0 11.618 9.817 21.43 21.437 21.43h63.984c11.62 0 21.44-9.812 21.44-21.43v-59.544h374.946c11.62 0 21.438-9.818 21.438-21.438v-63.984c0-11.62-9.82-21.438-21.438-21.438zm-375.433-70.783c-.802 0-1.213-.41-1.213-1.213v-1.7c0-.802.41-1.213 1.213-1.213h116.084c.802 0 1.213.41 1.213 1.213v1.7c0 .21-.373.777-1.068 1.213h-116.23zm60.673 19.656v50.557h-4.126V123.09h4.126zm316.54 136.548c0 .802-.41 1.213-1.218 1.213H149.352c-3.07 0-5.554.923-7.373 2.743-1.814 1.813-2.737 4.296-2.737 7.373v69.652c0 .802-.41 1.213-1.213 1.213H74.04c-.803 0-1.214-.41-1.214-1.212V195.085c0-.802.41-1.213 1.213-1.213h460.367c.81 0 1.22.41 1.22 1.213v64.553zM101.22 373.542c-3.35 0-6.072 1.358-8.087 4.037l1.295.972-1.523-.67c-9.585 12.624-40.866 56.34-40.866 89.01 0 37.69 20.685 65.04 49.18 65.04 28.5 0 49.187-27.35 49.187-65.04 0-32.67-31.28-76.386-41.093-89.313-2.016-2.68-4.74-4.038-8.094-4.038zm0 138.166c-15.96 0-28.413-19.27-28.963-44.834.013-18.316 15.46-45.428 28.994-65.646 14.236 20.446 28.932 47.848 28.932 65.665 0 25.55-12.452 44.815-28.962 44.815z"/></svg>