<svg version="1.1" id="Layer_1" xmlns="http://www.w3.org/2000/svg" x="0" y="0" width="600" height="600" viewBox="0 0 600 600" fill="#fff" xml:space="preserve"><path d="M300 508.836c-113.883 0-206.534-92.65-206.534-206.534S186.116 95.767 300 95.767s206.534 92.65 206.534 206.534S413.884 508.837 300 508.837zm0-392.435c-102.505 0-185.9 83.396-185.9 185.9S197.495 488.2 300 488.2s185.9-83.394 185.9-185.9S402.505 116.4 300 116.4zm0 274.704c-48.972 0-88.81-39.837-88.81-88.802S251.03 213.5 300 213.5c48.965 0 88.802 39.837 88.802 88.802S348.965 391.104 300 391.104zm0-156.97c-37.594 0-68.175 30.58-68.175 68.168S262.405 370.47 300 370.47c37.587 0 68.17-30.58 68.17-68.17s-30.583-68.167-68.17-68.167z"/><path d="M272.527 316.254c0-8.72 3.924-13.953 11.337-17.005-5.232-3.49-9.157-7.85-9.157-15.262 0-10.9 10.03-19.186 24.854-19.186 14.826 0 24.855 8.285 24.855 19.186 0 7.413-3.488 12.21-9.157 15.26 6.977 3.925 11.337 8.286 11.337 16.57 0 13.08-11.337 20.494-27.034 20.494-15.696 0-27.033-7.413-27.033-20.058zm39.244-.872c0-5.668-5.23-8.72-12.208-8.72-6.977 0-12.21 3.05-12.21 8.72 0 4.796 4.36 8.72 12.21 8.72 7.848 0 12.21-3.924 12.21-8.72zm-2.18-29.65c0-4.36-3.924-8.285-10.03-8.285-6.103 0-10.028 3.924-10.028 8.285 0 4.796 3.924 8.72 10.03 8.72 6.104 0 10.028-3.924 10.028-8.72z"/></svg>