<svg version="1.1" id="Layer_1" xmlns="http://www.w3.org/2000/svg" x="0" y="0" width="600" height="600" viewBox="0 0 600 600" fill="#fff" xml:space="preserve"><path d="M227.522 415.313c-20.413 0-37.024-16.617-37.024-37.042 0-20.418 16.61-37.03 37.024-37.03 20.42 0 37.024 16.612 37.024 37.03 0 20.426-16.605 37.043-37.024 37.043zm0-54.41c-9.576 0-17.363 7.786-17.363 17.368s7.786 17.382 17.362 17.382 17.363-7.793 17.363-17.38c0-9.577-7.787-17.37-17.363-17.37zM385.917 415.313c-20.425 0-37.042-16.617-37.042-37.042 0-20.418 16.617-37.03 37.042-37.03 20.42 0 37.024 16.612 37.024 37.03 0 20.426-16.61 37.043-37.023 37.043zm0-54.41c-9.582 0-17.38 7.786-17.38 17.368s7.792 17.382 17.38 17.382c9.576 0 17.363-7.793 17.363-17.38 0-9.577-7.793-17.37-17.363-17.37z"/><path d="M464.774 189.265c0-1.054-.207-2.05-.515-2.997v-10.363c0-30.723-24.992-55.708-55.715-55.708H204.888c-30.723 0-55.714 24.99-55.714 55.708v233.272c0 30.723 24.99 55.708 55.714 55.708h203.657c30.723 0 55.714-24.99 55.714-55.708V285.894c.307-.948.514-1.942.514-2.997v-93.632zm-20.176 83.802h-127.53v-73.97h127.53v73.97zm-239.704-133.21H408.55c19.875 0 36.048 16.168 36.048 36.048v3.53h-137.36c-.09 0-.172.024-.26.03-.09-.006-.173-.03-.262-.03H168.84v-3.53c0-19.874 16.174-36.047 36.054-36.047zm-36.053 59.24h128.046v73.97H168.84v-73.97zm239.705 246.128H204.888c-19.874 0-36.047-16.167-36.047-36.047V292.734h137.876c.09 0 .172-.024.26-.03.09.006.173.03.262.03h137.36v116.45c0 19.874-16.173 36.04-36.053 36.04zM200.322 548.202a9.796 9.796 0 0 1-4.193-.942c-4.91-2.315-7.013-8.178-4.697-13.088l23.404-49.58c2.315-4.908 8.184-7.01 13.088-4.69 4.91 2.316 7.012 8.18 4.696 13.09l-23.403 49.578c-1.676 3.553-5.21 5.632-8.895 5.632zM413.117 548.202c-3.683 0-7.22-2.08-8.895-5.632L380.8 492.992c-2.32-4.91-.22-10.766 4.69-13.088 4.91-2.315 10.772-.225 13.088 4.69L422 534.174c2.32 4.908.22 10.765-4.69 13.087a9.812 9.812 0 0 1-4.193.942zM420.667 82.137l-27.194-24.79c-2.15-1.97-4.94-2.76-7.633-2.48-.296-.024-.58-.09-.876-.09H226.592c-.23 0-.438.054-.663.072-.35.023-.694.04-1.037.106a7.88 7.88 0 0 0-.918.225 9.316 9.316 0 0 0-.924.285c-.307.124-.597.266-.893.415a11.82 11.82 0 0 0-.81.438c-.31.195-.587.42-.866.645-.165.13-.348.23-.508.373l-27.217 24.79c-4.015 3.653-4.305 9.877-.65 13.892a9.823 9.823 0 0 0 7.27 3.21 9.785 9.785 0 0 0 6.616-2.564l24.405-22.225h23.546v21.833c0 5.43 4.4 9.83 9.83 9.83s9.83-4.4 9.83-9.83v-21.83h60.21V96.28c0 5.43 4.4 9.83 9.83 9.83s9.83-4.4 9.83-9.83V74.444h29.568l24.38 22.22a9.777 9.777 0 0 0 6.622 2.57c2.67 0 5.33-1.085 7.272-3.21 3.66-4.015 3.37-10.233-.645-13.887z"/></svg>