<?xml version="1.0" encoding="utf-8"?>
<!-- Generator: Adobe Illustrator 19.2.0, SVG Export Plug-In . SVG Version: 6.00 Build 0)  -->
<svg version="1.1" id="Layer_1" xmlns="http://www.w3.org/2000/svg" xmlns:xlink="http://www.w3.org/1999/xlink" x="0px" y="0px"
	 viewBox="0 0 136 83" style="enable-background:new 0 0 136 83;" xml:space="preserve">
<style type="text/css">
	.st0{fill:#FFFFFF;}
</style>
<path id="XMLID_40_" class="st0" d="M123.7,30.5H120V24c0-4.6-3.7-8.3-8.3-8.3c-1,0-2,0.2-2.9,0.5c-1.2-5.5-6.1-9.6-11.9-9.6
	c-6.7,0-12.2,5.5-12.2,12.2v11.7H48.3V18.8c0-6.7-5.5-12.2-12.2-12.2c-5.8,0-10.7,4.1-11.9,9.6c-0.9-0.3-1.9-0.5-2.9-0.5
	c-4.6,0-8.3,3.7-8.3,8.3v6.5H9.3c-2.1,0-3.9,1.7-3.9,3.9v14.5c0,2.1,1.7,3.9,3.9,3.9H13v7c0,4.6,3.7,8.3,8.3,8.3
	c1.1,0,2.1-0.2,3.1-0.6c1.5,5.1,6.1,8.8,11.7,8.8c6.7,0,12.2-5.5,12.2-12.2V52.8h36.4V64c0,6.7,5.5,12.2,12.2,12.2
	c5.6,0,10.2-3.7,11.7-8.8c1,0.4,2,0.6,3.1,0.6c4.6,0,8.3-3.7,8.3-8.3v-7h3.7c2.1,0,3.9-1.7,3.9-3.9V34.4
	C127.6,32.2,125.9,30.5,123.7,30.5z M13,49H9.3c-0.1,0-0.1-0.1-0.1-0.1V34.4c0-0.1,0.1-0.1,0.1-0.1H13V49z M23.9,63.4
	c-0.8,0.5-1.6,0.8-2.6,0.8c-2.5,0-4.5-2-4.5-4.5V24c0-2.5,2-4.5,4.5-4.5c0.9,0,1.8,0.3,2.6,0.8V63.4z M44.5,64
	c0,4.7-3.8,8.5-8.5,8.5c-4.5,0-8.1-3.4-8.4-7.8V19c0-4.7,3.8-8.4,8.5-8.4s8.5,3.8,8.5,8.5L44.5,64L44.5,64z M84.7,49H48.3V34.2h36.4
	V49z M105.4,64v0.2l0,0c-0.2,4.6-3.9,8.2-8.4,8.2c-4.7,0-8.5-3.8-8.5-8.5V18.8c0-4.7,3.8-8.5,8.5-8.5s8.4,3.8,8.5,8.5L105.4,64z
	 M116.2,59.7c0,2.5-2,4.5-4.5,4.5c-0.9,0-1.8-0.3-2.6-0.8V20.3c0.8-0.5,1.7-0.8,2.6-0.8c2.5,0,4.5,2,4.5,4.5V59.7z M123.8,48.9
	C123.8,49,123.7,49,123.8,48.9L120,49V34.2h3.7c0.1,0,0.1,0.1,0.1,0.1S123.8,48.9,123.8,48.9z"/>
</svg>
