<?xml version="1.0" encoding="utf-8"?>
<!-- Generator: Adobe Illustrator 19.2.0, SVG Export Plug-In . SVG Version: 6.00 Build 0)  -->
<svg version="1.1" id="Layer_1" xmlns="http://www.w3.org/2000/svg" xmlns:xlink="http://www.w3.org/1999/xlink" x="0px" y="0px"
	 viewBox="0 0 141 91" style="enable-background:new 0 0 141 91;" xml:space="preserve">
<style type="text/css">
	.st0{fill:#FFFFFF;}
</style>
<path id="XMLID_21_" class="st0" d="M109.9,35.8c-3,0-6,0.5-8.8,1.6l-7.6-15.1c0,0,0,0,0-0.1l2.3-6.7l3.3,0.1c0.1,0,0.2,0,0.3,0
	c0.7,0,1.4-0.4,1.9-0.9c0.5-0.6,0.7-1.3,0.7-2c-0.1-1.5-1.4-2.7-2.9-2.6l-18.6,1.2c-1,0.1-1.7,0.8-1.8,1.8c0,1,0.8,1.9,1.8,1.9
	L91,15.3L89,21H45c1.2-4.1,2.1-6.9,2.3-7.5c0.6-2,1.4-2,1.9-2h9.4c1.3,0,2.3-1,2.3-2.3s-1-2.3-2.3-2.3h-9.4c-2.1,0-5,0.9-6.3,5.3
	c-0.4,1.3-3.8,12.8-7.2,24l-0.1,0.2c-1.7-0.4-3.4-0.5-5.2-0.5C16.5,35.8,5.2,47.1,5.2,61s11.3,25.2,25.2,25.2S55.6,74.9,55.6,61
	c0-10.2-6.1-19.3-15.6-23.3l1.8-6L73.2,65c0.4,0.5,1.1,0.7,1.7,0.7h10.3c2.3,11.9,12.6,20.5,24.7,20.5c13.9,0,25.2-11.3,25.2-25.2
	C135.1,47.1,123.8,35.8,109.9,35.8z M50.9,61c0,11.3-9.2,20.5-20.5,20.5S9.9,72.3,9.9,61s9.2-20.5,20.5-20.5c1.3,0,2.6,0.1,3.8,0.4
	l-5.8,19.5c-0.4,1.2,0.3,2.5,1.6,2.9c0.2,0.1,0.4,0.1,0.7,0.1c1,0,1.9-0.7,2.2-1.7c0.1-0.2,2.7-9.2,5.8-19.4
	C46.1,45.6,50.9,52.9,50.9,61z M43.8,27l0.3-1.3h43.3L75.6,60.8L43.8,27z M84.7,61.1h-4.3l11-32.6l5.5,11
	C89.4,44,84.7,52.3,84.7,61.1L84.7,61.1z M89.4,61c0-7,3.7-13.6,9.6-17.4l8.8,17.4H89.4L89.4,61z M109.9,81.6
	c-9.5,0-17.8-6.6-20-15.8h21.6c1.3,0,2.3-1,2.3-2.3c0-0.5-0.1-0.9-0.4-1.2l-10.3-20.6c2.1-0.7,4.4-1.1,6.7-1.1
	c11.3,0,20.5,9.2,20.5,20.5C130.5,72.3,121.3,81.6,109.9,81.6z"/>
</svg>
