<?xml version="1.0" encoding="utf-8"?>
<!-- Generator: Adobe Illustrator 19.2.1, SVG Export Plug-In . SVG Version: 6.00 Build 0)  -->
<svg version="1.1" id="Layer_1" xmlns="http://www.w3.org/2000/svg" xmlns:xlink="http://www.w3.org/1999/xlink" x="0px" y="0px"
	 viewBox="0 0 783 395" style="enable-background:new 0 0 783 395;" xml:space="preserve">
<style type="text/css">
	.st0{fill:#FFFFFF;}
</style>
<g>
	<g id="XMLID_97_">
		<g>
			<path class="st0" d="M234.2,229c6,0,10.4,1.9,14.5,5.6c0.5,0.5,0.5,1.2,0.1,1.7l-4.7,4.8c-0.4,0.4-1.1,0.4-1.5,0
				c-2.2-2-5.1-3-8.1-3c-6.8,0-11.7,5.6-11.7,12.3c0,6.6,5,12.1,11.8,12.1c2.8,0,5.9-1,8-2.9c0.4-0.4,1.2-0.4,1.6,0.1l4.7,5
				c0.4,0.4,0.4,1.2-0.1,1.6c-4.1,3.9-9.2,5.8-14.5,5.8c-12,0-21.6-9.5-21.6-21.5C212.6,238.7,222.2,229,234.2,229z"/>
		</g>
		<g>
			<path class="st0" d="M267.9,230.8c0-0.6,0.5-1.1,1.1-1.1h24.8c0.7,0,1.1,0.5,1.1,1.1v6.5c0,0.6-0.5,1.1-1.1,1.1h-16.6v7.4h13.6
				c0.6,0,1.1,0.5,1.1,1.1v6.5c0,0.7-0.5,1.1-1.1,1.1h-13.6v8.1h16.6c0.7,0,1.1,0.5,1.1,1.1v6.5c0,0.6-0.5,1.1-1.1,1.1H269
				c-0.7,0-1.1-0.5-1.1-1.1V230.8z"/>
		</g>
		<g>
			<path class="st0" d="M314.9,230.1c0-0.6,0.5-1.1,1.1-1.1h1.5l23.9,23h0.1v-21.2c0-0.6,0.5-1.1,1.1-1.1h7.2c0.6,0,1.1,0.5,1.1,1.1
				V271c0,0.6-0.5,1.1-1.1,1.1h-1c-0.2,0-0.7-0.2-0.8-0.3l-23.6-23.8h-0.1v22.3c0,0.6-0.5,1.1-1.1,1.1h-7.1c-0.6,0-1.1-0.5-1.1-1.1
				L314.9,230.1z"/>
		</g>
		<g>
			<path class="st0" d="M378.6,238.4H370c-0.7,0-1.1-0.5-1.1-1.1v-6.5c0-0.6,0.5-1.1,1.1-1.1h26.6c0.7,0,1.1,0.5,1.1,1.1v6.5
				c0,0.6-0.5,1.1-1.1,1.1H388v31.9c0,0.6-0.5,1.1-1.1,1.1h-7.2c-0.6,0-1.1-0.5-1.1-1.1L378.6,238.4L378.6,238.4z"/>
		</g>
		<g>
			<path class="st0" d="M415.7,230.8c0-0.6,0.5-1.1,1.1-1.1h17.9c7.2,0,13,5.8,13,12.9c0,5.5-3.6,9.9-8.9,12l8.2,15.2
				c0.4,0.8,0,1.7-1,1.7h-8c-0.5,0-0.8-0.3-1-0.5l-8-15.8h-4.1v15.2c0,0.6-0.5,1.1-1.1,1.1h-7.1c-0.7,0-1.1-0.5-1.1-1.1L415.7,230.8
				L415.7,230.8z M433.9,247.5c2.5,0,4.5-2.3,4.5-4.8c0-2.5-2.1-4.5-4.5-4.5h-8.9v9.3H433.9z"/>
		</g>
		<g>
			<path class="st0" d="M467.2,230.8c0-0.6,0.5-1.1,1.1-1.1h7.4c0.7,0,1.1,0.5,1.1,1.1V255c0,4.2,3.1,7.5,7.4,7.5
				c4.3,0,7.5-3.4,7.5-7.5v-24.2c0-0.6,0.5-1.1,1.1-1.1h7.4c0.6,0,1.1,0.5,1.1,1.1v24.7c0,9.1-7.7,16.6-17.1,16.6
				c-9.4,0-17-7.5-17-16.6L467.2,230.8L467.2,230.8z"/>
		</g>
		<g>
			<path class="st0" d="M527,230c0.1-0.5,0.6-1,1.1-1h1c0.3,0,0.8,0.2,1,0.6l13.9,25.8h0.1l13.9-25.8c0.2-0.4,0.7-0.6,1-0.6h1
				c0.5,0,1,0.4,1.1,1l6.8,40.2c0.1,0.8-0.4,1.3-1.1,1.3h-7.1c-0.5,0-1.1-0.5-1.1-1l-2.7-18.5h-0.1l-10,19.4c-0.2,0.4-0.7,0.7-1,0.7
				h-1.1c-0.4,0-0.8-0.3-1-0.7l-10.1-19.4h-0.1l-2.6,18.5c-0.1,0.5-0.5,1-1.1,1h-7.1c-0.7,0-1.3-0.5-1.1-1.3L527,230z"/>
		</g>
		<g>
			<path class="st0" d="M14.5,306.5c0-1.1,0.9-2.1,2.1-2.1h25.1c13.1,0,23.2,8.8,23.2,20.3c0,8.5-6.9,15-12.1,17.5
				c5.8,1.9,14.3,7.8,14.3,17.9c0,12.3-10.5,21.2-23.9,21.2H16.6c-1.2,0-2.1-1-2.1-2.1L14.5,306.5L14.5,306.5z M40.4,336.7
				c5.6,0,9.4-4.4,9.4-9.9c0-5.5-3.8-9.3-9.4-9.3H28.7v19.2H40.4z M42,368.3c5.5,0,9.9-4.3,9.9-10c0-5.5-5.5-9.5-11.2-9.5h-12v19.5
				L42,368.3L42,368.3z"/>
		</g>
		<g>
			<path class="st0" d="M103.1,306.5c0-1.1,1-2.1,2.1-2.1h10.4c1.2,0,2.1,1,2.1,2.1v44.9c0,9.3,6.4,16.7,15.9,16.7
				c9.6,0,16-7.4,16-16.6v-45c0-1.1,0.9-2.1,2.1-2.1h10.4c1.1,0,2.1,1,2.1,2.1v45.7c0,16.7-13.3,30.2-30.6,30.2
				c-17.2,0-30.5-13.5-30.5-30.2L103.1,306.5L103.1,306.5z"/>
		</g>
		<g>
			<path class="st0" d="M239,303.3c11.1,0,19.1,3.5,26.6,10.2c1,0.9,1,2.2,0.1,3.1l-6.7,6.9c-0.8,0.9-1.9,0.9-2.7,0
				c-4.6-4.1-10.8-6.5-16.9-6.5c-14,0-24.5,11.7-24.5,25.6c0,13.7,10.5,25.3,24.6,25.3c6.6,0,12.2-2.5,16.8-6.3
				c0.9-0.8,2.1-0.7,2.7,0l6.8,7c0.9,0.8,0.7,2.2-0.1,3c-7.5,7.2-16.9,10.6-26.7,10.6c-21.9,0-39.6-17.4-39.6-39.4
				C199.4,321,217.1,303.3,239,303.3z"/>
		</g>
		<g>
			<path class="st0" d="M302,307c0-1.4,1.1-2.6,2.6-2.6h9.7c1.4,0,2.6,1.2,2.6,2.6v29.6l27.7-31.2c0.4-0.5,1.1-1.1,2.1-1.1h11
				c2.1,0,3.2,2.3,1.8,4l-28.6,32.3l30.7,36.8c1.1,1.4,0.2,3.8-2,3.8h-12c-1.1,0-1.8-0.4-2-0.8l-28.6-35.3v33.5
				c0,1.4-1.2,2.6-2.6,2.6h-9.7c-1.5,0-2.6-1.2-2.6-2.6L302,307L302,307z"/>
		</g>
		<g>
			<path class="st0" d="M406.2,317.6h-16.8c-1.2,0-2.1-1-2.1-2.1v-9c0-1.1,0.9-2.1,2.1-2.1h48c1.2,0,2.1,1,2.1,2.1v9
				c0,1.1-0.9,2.1-2.1,2.1h-16.8v61.6c0,1.1-1,2.1-2.1,2.1h-10.2c-1.1,0-2.1-1-2.1-2.1L406.2,317.6L406.2,317.6z"/>
		</g>
		<g>
			<path class="st0" d="M505.9,303.3c22,0,39.5,17.7,39.5,39.6c0,22-17.6,39.4-39.5,39.4c-21.9,0-39.4-17.4-39.4-39.4
				C466.5,321,483.9,303.3,505.9,303.3z M505.9,368.1c13.8,0,25.2-11.3,25.2-25.1s-11.4-25.4-25.2-25.4s-25.1,11.5-25.1,25.4
				S492.1,368.1,505.9,368.1z"/>
		</g>
		<g>
			<path class="st0" d="M574.4,307c-0.4-1.5,0.4-2.6,2-2.6h10.1c0.9,0,1.8,0.8,2,1.5l11.4,43.8h0.4l17.4-45.2
				c0.2-0.7,0.8-1.2,1.9-1.2h2c1.1,0,1.6,0.5,1.9,1.2l17.6,45.2h0.4l11.2-43.8c0.2-0.8,1.1-1.5,2-1.5h10.1c1.5,0,2.4,1.1,2,2.6
				l-20.7,73.7c-0.2,0.9-1.1,1.5-2,1.5h-1.8c-1,0-1.6-0.5-1.9-1.2l-19.6-49.7h-0.5l-19.4,49.7c-0.3,0.7-0.8,1.2-1.9,1.2h-1.8
				c-0.9,0-1.8-0.7-2-1.5L574.4,307z"/>
		</g>
		<g>
			<path class="st0" d="M701.4,305.3c0-1.1,1-2,2.1-2h2.7l45.7,48.5h0.1v-45.3c0-1.1,0.9-2.1,2.1-2.1h10.1c1.1,0,2.1,1,2.1,2.1v73.9
				c0,1.1-1,2-2.1,2h-2.6L715.7,332h-0.1v47.2c0,1.1-0.9,2.1-2.1,2.1h-10c-1.1,0-2.1-1-2.1-2.1L701.4,305.3L701.4,305.3z"/>
		</g>
	</g>
	<g>
		<g>
			<g>
				<path class="st0" d="M313.8,186.7c-2.1,0-3.7-1.7-3.7-3.7v-44.2c0-42.9,34.9-77.8,77.8-77.8h2.6c2.1,0,3.7,1.7,3.7,3.7
					s-1.7,3.7-3.7,3.7h-2.6c-38.8,0-70.3,31.5-70.3,70.3v44.2C317.6,185,315.9,186.7,313.8,186.7z"/>
			</g>
			<g>
				<path class="st0" d="M467,186.7c-2.1,0-3.7-1.7-3.7-3.7v-44.2c0-38.8-31.5-70.3-70.3-70.3h-2.6c-2.1,0-3.7-1.7-3.7-3.7
					s1.7-3.7,3.7-3.7h2.6c42.9,0,77.8,34.9,77.8,77.8v44.2C470.7,185,469,186.7,467,186.7z"/>
			</g>
		</g>
		<g>
			<g>
				<g>
					<path class="st0" d="M284,186.7c-2.1,0-3.7-1.7-3.7-3.7v-61.4c0-58.8,47.8-106.6,106.6-106.6h3.6c2.1,0,3.7,1.7,3.7,3.7
						s-1.7,3.7-3.7,3.7h-3.6c-54.6,0-99.1,44.4-99.1,99.1v61.4C287.8,185,286.1,186.7,284,186.7z"/>
				</g>
				<g>
					<path class="st0" d="M496.8,186.7c-2.1,0-3.7-1.7-3.7-3.7v-61.4c0-54.6-44.5-99.1-99.1-99.1h-3.6c-2.1,0-3.7-1.7-3.7-3.7
						s1.7-3.7,3.7-3.7h3.6c58.8,0,106.6,47.8,106.6,106.6v61.4C500.5,185,498.9,186.7,496.8,186.7z"/>
				</g>
			</g>
			<g>
				<g>
					<path class="st0" d="M342.5,186.7c-2.1,0-3.7-1.7-3.7-3.7v-27.7c0-27.6,22.5-50.1,50.1-50.1h1.6c2.1,0,3.7,1.7,3.7,3.7
						s-1.7,3.7-3.7,3.7h-1.6c-23.5,0-42.6,19.1-42.6,42.6v27.7C346.2,185,344.5,186.7,342.5,186.7z"/>
				</g>
				<g>
					<path class="st0" d="M438.4,186.7c-2.1,0-3.7-1.7-3.7-3.7v-27.7c0-23.5-19.1-42.6-42.6-42.6h-1.6c-2.1,0-3.7-1.7-3.7-3.7
						s1.7-3.7,3.7-3.7h1.6c27.6,0,50.1,22.5,50.1,50.1v27.7C442.1,185,440.4,186.7,438.4,186.7z"/>
				</g>
			</g>
		</g>
	</g>
</g>
</svg>
