<?xml version="1.0" encoding="utf-8"?>
<!-- Generator: Adobe Illustrator 19.2.0, SVG Export Plug-In . SVG Version: 6.00 Build 0)  -->
<svg version="1.1" id="Layer_1" xmlns="http://www.w3.org/2000/svg" xmlns:xlink="http://www.w3.org/1999/xlink" x="0px" y="0px"
	 viewBox="0 0 96 96" style="enable-background:new 0 0 96 96;" xml:space="preserve">
<style type="text/css">
	.st0{fill:#FFFFFF;}
</style>
<g id="XMLID_1_">
	<path id="XMLID_30_" class="st0" d="M88.2,41.1c-0.4-0.4-1-0.6-1.5-0.6H10.1c-1.2,0-2.2,1-2.2,2.2v17c0,16.5,14.5,29.9,32.2,29.9
		c16.1,0,29.7-11,31.9-25.7c13.1-1.1,16.6-14.3,16.7-21.1C88.8,42.1,88.6,41.5,88.2,41.1z M68.1,59.6c0,14.1-12.5,25.5-27.9,25.5
		S12.3,73.6,12.3,59.6V44.8h55.8V59.6z M72.4,59.4V44.8h11.8C83.7,49.2,81.5,58.1,72.4,59.4z"/>
	<path id="XMLID_33_" class="st0" d="M28.6,24c0,1.1-0.3,1.6-0.9,2.4c-0.7,1-1.7,2.4-1.7,4.9c0,1.2,1,2.2,2.2,2.2s2.2-1,2.2-2.2
		c0-1.1,0.3-1.6,0.9-2.4c0.7-1,1.7-2.4,1.7-4.9s-1-3.9-1.7-4.9c-0.6-0.8-0.9-1.3-0.9-2.4s0.3-1.6,0.9-2.4c0.7-1,1.7-2.4,1.7-4.9
		c0-1.2-1-2.2-2.2-2.2s-2.2,1-2.2,2.2c0,1.1-0.3,1.6-0.9,2.4c-0.7,1-1.7,2.4-1.7,4.9s1,3.9,1.7,4.9C28.3,22.4,28.6,22.9,28.6,24z"/>
	<path id="XMLID_34_" class="st0" d="M39.3,24c0,1.1-0.3,1.6-0.9,2.4c-0.7,1-1.7,2.4-1.7,4.9c0,1.2,1,2.2,2.2,2.2s2.2-1,2.2-2.2
		c0-1.1,0.3-1.6,0.9-2.4c0.7-1,1.7-2.4,1.7-4.9s-1-3.9-1.7-4.9c-0.6-0.8-0.9-1.3-0.9-2.4s0.3-1.6,0.9-2.4c0.7-1,1.7-2.4,1.7-4.9
		c0-1.2-1-2.2-2.2-2.2s-2.2,1-2.2,2.2c0,1.1-0.3,1.6-0.9,2.4c-0.7,1-1.7,2.4-1.7,4.9s1,3.9,1.7,4.9C39,22.4,39.3,22.9,39.3,24z"/>
	<path id="XMLID_35_" class="st0" d="M49.9,24c0,1.1-0.3,1.6-0.9,2.4c-0.7,1-1.7,2.4-1.7,4.9c0,1.2,1,2.2,2.2,2.2s2.2-1,2.2-2.2
		c0-1.1,0.3-1.6,0.9-2.4c0.7-1,1.7-2.4,1.7-4.9s-1-3.9-1.7-4.9c-0.6-0.8-0.9-1.3-0.9-2.4s0.3-1.6,0.9-2.4c0.7-1,1.7-2.4,1.7-4.9
		c0-1.2-1-2.2-2.2-2.2s-2.2,1-2.2,2.2c0,1.1-0.3,1.6-0.9,2.4c-0.7,1-1.7,2.4-1.7,4.9s1,3.9,1.7,4.9C49.6,22.4,49.9,22.9,49.9,24z"/>
</g>
</svg>
