<?xml version="1.0" encoding="utf-8"?>
<!-- Generator: Adobe Illustrator 19.2.0, SVG Export Plug-In . SVG Version: 6.00 Build 0)  -->
<svg version="1.1" id="Layer_1" xmlns="http://www.w3.org/2000/svg" xmlns:xlink="http://www.w3.org/1999/xlink" x="0px" y="0px"
	 viewBox="0 0 98 70" style="enable-background:new 0 0 98 70;" xml:space="preserve">
<style type="text/css">
	.st0{fill:#FFFFFF;}
</style>
<path id="XMLID_10_" class="st0" d="M86.2,5.9H10.1c-2.4,0-4.3,1.9-4.3,4.3v48.7c0,2.4,1.9,4.3,4.3,4.3h76.1c2.4,0,4.3-1.9,4.3-4.3
	V10.2C90.5,7.8,88.6,5.9,86.2,5.9z M83.9,9.6L48.1,39.4L12.3,9.6H83.9z M9.5,56.9V12.2l26.9,22.4L9.5,56.9z M12.3,59.4l27-22.5
	l7.6,6.3c0.7,0.6,1.7,0.6,2.4,0l7.6-6.3l27,22.5H12.3z M59.8,34.5l26.9-22.4l0,44.7L59.8,34.5z"/>
</svg>
