<?xml version="1.0" encoding="utf-8"?>
<!-- Generator: Adobe Illustrator 19.2.0, SVG Export Plug-In . SVG Version: 6.00 Build 0)  -->
<svg version="1.1" id="Layer_1" xmlns="http://www.w3.org/2000/svg" xmlns:xlink="http://www.w3.org/1999/xlink" x="0px" y="0px"
	 width="600px" height="600px" viewBox="0 0 600 600" enable-background="new 0 0 600 600" fill="#ffffff" xml:space="preserve">
<g>
	<path d="M533.846,174.216H239.311v-50.558h35.755c11.619,0,21.438-9.818,21.438-21.438v-1.7c0-11.619-9.818-21.438-21.438-21.438
		H158.981c-11.619,0-21.438,9.818-21.438,21.438v1.7c0,11.619,9.818,21.438,21.438,21.438h35.755v50.558H74.039
		c-11.082,0-20.029,7.835-21.4,19.037l-0.6,0.607v146.759c0,11.619,9.818,21.431,21.438,21.431h63.984
		c11.619,0,21.438-9.812,21.438-21.431v-59.543h374.947c11.619,0,21.438-9.818,21.438-21.438v-63.984
		C555.283,184.035,545.465,174.216,533.846,174.216z M158.413,103.433c-0.802,0-1.213-0.411-1.213-1.213v-1.7
		c0-0.802,0.411-1.213,1.213-1.213h116.084c0.802,0,1.213,0.411,1.213,1.213v1.7c0,0.209-0.373,0.777-1.068,1.213H158.413z
		 M219.086,123.089v50.558h-4.126v-50.558H219.086z M535.627,259.638c0,0.802-0.411,1.213-1.219,1.213H149.352
		c-3.071,0-5.554,0.922-7.373,2.742c-1.813,1.813-2.736,4.296-2.736,7.373v69.652c0,0.802-0.411,1.213-1.213,1.213H74.039
		c-0.802,0-1.213-0.411-1.213-1.213V195.085c0-0.802,0.411-1.213,1.213-1.213h460.368c0.809,0,1.219,0.411,1.219,1.213V259.638z"/>
	<path d="M101.22,373.542c-3.349,0-6.072,1.358-8.087,4.037l1.295,0.973l-1.523-0.67c-9.585,12.624-40.866,56.339-40.866,89.011
		c0,37.688,20.686,65.039,49.181,65.039c28.501,0,49.187-27.351,49.187-65.039c0-32.671-31.281-76.387-41.093-89.314
		C107.298,374.901,104.575,373.542,101.22,373.542z M101.22,511.708c-15.96,0-28.413-19.27-28.963-44.834
		c0.013-18.316,15.461-45.428,28.994-65.646c14.235,20.446,28.931,47.848,28.931,65.665
		C130.183,492.444,117.73,511.708,101.22,511.708z"/>
</g>
</svg>
