<?xml version="1.0" encoding="utf-8"?>
<!-- Generator: Adobe Illustrator 19.2.0, SVG Export Plug-In . SVG Version: 6.00 Build 0)  -->
<svg version="1.1" id="Layer_1" xmlns="http://www.w3.org/2000/svg" xmlns:xlink="http://www.w3.org/1999/xlink" x="0px" y="0px"
	 width="600px" height="600px" viewBox="0 0 600 600" enable-background="new 0 0 600 600" fill="#ffffff" xml:space="preserve">
<path id="XMLID_40_" fill="#231F20" d="M573.616,261.295h-17.885v-30.874c0-21.806-17.74-39.546-39.546-39.546
	c-4.735,0-9.342,0.873-13.674,2.474c-5.669-26.22-29.017-45.936-56.909-45.936c-32.119,0-58.251,26.132-58.251,58.251v55.631
	H213.369v-55.631c0-32.119-26.132-58.251-58.251-58.251c-27.891,0-51.241,19.715-56.913,45.934c-4.33-1.599-8.935-2.472-13.67-2.472
	c-21.806,0-39.546,17.74-39.546,39.546v30.874H27.1c-10.169,0-18.444,8.273-18.444,18.442v69.34
	c0,10.168,8.276,18.444,18.444,18.444h17.889v33.261c0,21.806,17.74,39.546,39.546,39.546c5.141,0,10.143-0.989,14.788-2.866
	c7.064,24.305,29.274,41.792,55.795,41.792c32.119,0,58.251-26.132,58.251-58.251v-53.481h173.984v53.481
	c0,32.119,26.132,58.251,58.251,58.251c26.52,0,48.729-17.485,55.794-41.79c4.644,1.876,9.645,2.864,14.789,2.864
	c21.806,0,39.546-17.74,39.546-39.546v-33.261h17.885c10.169,0,18.444-8.276,18.444-18.444v-69.34
	C592.061,269.569,583.785,261.295,573.616,261.295z M44.989,349.618H27.1c-0.298,0-0.541-0.242-0.541-0.541v-69.34
	c0-0.296,0.242-0.538,0.541-0.538h17.889V349.618z M96.867,418.555c-3.604,2.513-7.875,3.87-12.332,3.87
	c-11.936,0-21.642-9.707-21.642-21.642V230.421c0-11.933,9.707-21.642,21.642-21.642c4.457,0,8.728,1.357,12.332,3.872V418.555z
	 M195.465,421.003c0,22.249-18.099,40.348-40.348,40.348c-21.324,0-38.638-16.321-40.14-37.429l-0.207-218.275
	c0.01-22.24,18.104-40.33,40.347-40.33c22.249,0,40.348,18.099,40.348,40.348V421.003z M387.352,349.618H213.369v-70.42h173.984
	V349.618z M485.923,421.339l-0.031,1.022l-0.021-0.001c-0.727,21.866-18.416,38.991-40.268,38.991
	c-22.249,0-40.348-18.099-40.348-40.348V205.665c0-22.249,18.099-40.348,40.348-40.348c22.243,0,40.342,18.098,40.343,40.346
	L485.923,421.339z M537.828,400.782c0,11.936-9.707,21.642-21.642,21.642c-4.462,0-8.733-1.357-12.337-3.87V212.653
	c3.604-2.518,7.879-3.874,12.337-3.874c11.935,0,21.642,9.709,21.642,21.642V400.782z M574.157,349.077
	c0,0.298-0.242,0.541-0.541,0.541h-17.885v-70.42h17.885c0.298,0,0.541,0.242,0.541,0.538V349.077z"/>
</svg>
