<?xml version="1.0" encoding="utf-8"?>
<!-- Generator: Adobe Illustrator 19.2.0, SVG Export Plug-In . SVG Version: 6.00 Build 0)  -->
<svg version="1.1" id="Layer_1" xmlns="http://www.w3.org/2000/svg" xmlns:xlink="http://www.w3.org/1999/xlink" x="0px" y="0px"
	 viewBox="0 0 126 106" style="enable-background:new 0 0 126 106;" xml:space="preserve">
<style type="text/css">
	.st0{fill:#FFFFFF;}
</style>
<path id="XMLID_112_" class="st0" d="M99.8,59.2H62.6c-1.3,0-2.4,1.1-2.4,2.4v23.9c0,1.3,1.1,2.4,2.4,2.4h37.2
	c1.3,0,2.4-1.1,2.4-2.4V61.6C102.2,60.3,101.1,59.2,99.8,59.2z M97.4,83.2H65V64h32.4L97.4,83.2L97.4,83.2z M118.2,30.6L108,20.1
	V9.7c0-1.3-1.1-2.4-2.4-2.4H22.1c-1.3,0-2.4,1.1-2.4,2.4v10.4L9.5,30.6c-0.4,0.4-0.7,1-0.7,1.7v9.1c0,4.7,2.5,8.8,6.2,11v43
	c0,1.3,1.1,2.4,2.4,2.4h12c0,0,0,0,0,0c0,0,0,0,0,0c1.3,0,2.4-1.1,2.4-2.4V64H49v31.3c0,1.3,1.1,2.4,2.4,2.4h58.5
	c1.3,0,2.4-1.1,2.4-2.4V52.6c4-2.2,6.7-6.5,6.7-11.3v-9.1C118.9,31.6,118.7,31,118.2,30.6z M24.4,12.1h78.8v6.6H24.4V12.1z
	 M107.4,92.9H53.8V61.6c0-1.3-1.1-2.4-2.4-2.4H29.5c-1.3,0-2.4,1.1-2.4,2.4v31.3h-7.3V54.1c0.6,0.1,1.3,0.1,1.9,0.1
	c4.3,0,8.2-2.2,10.5-5.4c2.3,3.3,6.2,5.4,10.5,5.4s8.2-2.2,10.5-5.4c2.3,3.3,6.2,5.4,10.5,5.4s8.2-2.2,10.5-5.4
	c2.3,3.3,6.2,5.4,10.5,5.4c4.3,0,8.2-2.2,10.5-5.4c2.3,3.3,6.2,5.4,10.5,5.4c0.5,0,1,0,1.4-0.1L107.4,92.9L107.4,92.9z M114.1,41.3
	c0,4.5-3.7,8.1-8.1,8.1c-4.5,0-8.1-3.7-8.1-8.1c0-1.3-1.1-2.4-2.4-2.4s-2.4,1.1-2.4,2.4c0,4.5-3.7,8.1-8.1,8.1
	c-4.5,0-8.1-3.7-8.1-8.1c0-1.3-1.1-2.4-2.4-2.4c-1.3,0-2.4,1.1-2.4,2.4c0,4.5-3.7,8.1-8.1,8.1s-8.1-3.7-8.1-8.1
	c0-1.3-1.1-2.4-2.4-2.4c-1.3,0-2.4,1.1-2.4,2.4c0,4.5-3.7,8.1-8.1,8.1s-8.1-3.7-8.1-8.1c0-1.3-1.1-2.4-2.4-2.4
	c-1.3,0-2.4,1.1-2.4,2.4c0,4.5-3.7,8.1-8.1,8.1s-8.1-3.7-8.1-8.1v-8.1l9.5-9.7h81.6l9.5,9.7L114.1,41.3L114.1,41.3z"/>
</svg>
