<svg id="Livello_1" data-name="Livello 1" xmlns="http://www.w3.org/2000/svg" viewBox="0 0 303.62 77.52"><defs><style>.cls-1{fill:#163e71;}</style></defs><title>LogoAbaco</title><path class="cls-1" d="M247.58,70.06a12.82,12.82,0,0,1,2.62.17,2.48,2.48,0,0,1,1.23.57,2.06,2.06,0,0,1,.74,1.2,17.92,17.92,0,0,1,.09,1.83l0,8.37a4.32,4.32,0,0,1-.14,1.45,1.69,1.69,0,0,1-.75,1,4.09,4.09,0,0,1-1.74.6,17.91,17.91,0,0,1-2,.08H236.29c-0.33,0-.49-0.11-0.49-0.33V70h11.78Zm1.64,3.62a0.86,0.86,0,0,0-.46-0.75,2,2,0,0,0-1.14-.23l-8,.05h-0.81l0,8.88c0,0.88,1.07,1.08,1.39,1.08h7.37a2.23,2.23,0,0,0,1.2-.26,0.81,0.81,0,0,0,.44-0.83V73.68Z" transform="translate(-10.27 -7.84)"/><path class="cls-1" d="M271.49,82.72a0.76,0.76,0,0,1,.48.76V85c0,0.22-.16.33-0.49,0.33h-9.69a17.83,17.83,0,0,1-2.19,0,3.49,3.49,0,0,1-1.74-.57,2.06,2.06,0,0,1-.86-1.23,6.78,6.78,0,0,1-.1-1.43V71.93c0-.87,0-1.89,0-1.89h14.55c0.33,0,.49.11,0.49,0.33v1.53a0.88,0.88,0,0,1-.49.84h-9.69a3,3,0,0,0-1.43.33,0.93,0.93,0,0,0-.46.76V76.3c0,0.22.16,0.33,0.49,0.33h11.08a0.5,0.5,0,0,1,.5.5v1.35c0,0.22.1,0.75-.49,0.73H259.93l0,0.66v1.74a1,1,0,0,0,.41.83,3.12,3.12,0,0,0,1.47.28h9.69Z" transform="translate(-10.27 -7.84)"/><path class="cls-1" d="M146.06,70.06h2.29l4,4.55a0.29,0.29,0,0,0,.2.12,0.33,0.33,0,0,0,.24-0.12l4-4.56h2.55l-0.25.26-5.34,5.94a0.36,0.36,0,0,0-.11.26v3.42c0,0.14-.11.22-0.32,0.22h-1.51c-0.22,0-.32-0.07-0.32-0.22V76.54a0.43,0.43,0,0,0-.11-0.27l-5.38-6-0.23-.25" transform="translate(-10.27 -7.84)"/><path class="cls-1" d="M180.55,81.58h0a6.13,6.13,0,0,1-.25,2.32,2.05,2.05,0,0,1-.79.86,3.44,3.44,0,0,1-1.4.48,17.6,17.6,0,0,1-2.22.1H164.78V82.7H175.9c0.44,0,1.27,0,1.64,0V79.88a0.91,0.91,0,0,0-.49-0.77,2.06,2.06,0,0,0-1.15-.32h-7.33a5.21,5.21,0,0,1-1.75-.28,5,5,0,0,1-1.41-.75,3.63,3.63,0,0,1-.95-1.06,2.3,2.3,0,0,1-.35-1.18V73.33c0-.45,0-1,0-1.42,0-1.11,0-1.3,0-1.83h4.94l10.91,0h0.47v1.61c0,0.22,0,.37,0,1.1H167.11s0,0.79,0,1.09v1.24a0.92,0.92,0,0,0,.48.78,1.39,1.39,0,0,0,.93.32h7.81a11.37,11.37,0,0,1,2.15.13,3.13,3.13,0,0,1,1.39.67,2.22,2.22,0,0,1,.69,1.6c0,0.67,0,1.49,0,1.88v1.12Z" transform="translate(-10.27 -7.84)"/><path class="cls-1" d="M201.43,70.41V85c0,0.22-.16.33-0.49,0.33h-3.31a0.75,0.75,0,0,1-.59-0.22L188.46,74a0.58,0.58,0,0,0-.41-0.17,0.32,0.32,0,0,0-.32.29V85.3a4.08,4.08,0,0,1-2.27-.76,2.58,2.58,0,0,1-.74-1.64V70.08h3.8a0.75,0.75,0,0,1,.59.22l8.58,11.13a0.35,0.35,0,0,0,.26.17c0.13,0,.2-0.09.2-0.28V70.41c0-.22.16-0.33,0.49-0.33h2.29C201.26,70.08,201.43,70.19,201.43,70.41Z" transform="translate(-10.27 -7.84)"/><path class="cls-1" d="M230.89,70.39V85c0,0.22-.16.33-0.49,0.33h-2.29c-0.33,0-.49-0.11-0.49-0.33V70.39c0-.22.16-0.33,0.49-0.33h2.29C230.73,70.06,230.89,70.17,230.89,70.39Z" transform="translate(-10.27 -7.84)"/><path class="cls-1" d="M288,70.06c0.68,0,1.08,0,1.94.06a3.84,3.84,0,0,1,1.77.58,1.91,1.91,0,0,1,.85,1.22,7.75,7.75,0,0,1,.1,1.42v2.51c0,0.39,0,.52,0,1.19,0,1,0,2,0,2-0.2.06-1.49,0-2.16,0-0.52,0-.73,0-1.48,0L295,85a0.2,0.2,0,0,1,0,.11,0.2,0.2,0,0,1-.18.16,1.22,1.22,0,0,1-.34.05h-2.75a0.31,0.31,0,0,1-.28-0.09,1.11,1.11,0,0,0-.21-0.24l-4.78-4.8a6.48,6.48,0,0,0-.92-0.71,2.62,2.62,0,0,0-1.28-.38H280q-0.49,0-.49.33V85c0,0.22-.16.33-0.49,0.33h-2.29c-0.33,0-.49-0.11-0.49-0.33V73.33c0-.45,0-1.69,0-3.28H288Zm1.64,3.69a0.89,0.89,0,0,0-.33-0.84,2.81,2.81,0,0,0-1.37-.17h-8.72v2.69a1.14,1.14,0,0,0,1.37.93l7.41,0h1.64s0-.25,0-0.56V73.75Z" transform="translate(-10.27 -7.84)"/><path class="cls-1" d="M209.47,85.18H206v-15h12.45q3.46,0,3.46,2.58V85.18h-3.46V79h-9v6.19Zm0-8.77h9V73.83q0-1-1.39-1h-7.61v3.61Z" transform="translate(-10.27 -7.84)"/><path class="cls-1" d="M310.31,70.1q3.57,0,3.57,2.63V85.34H301q-3.58,0-3.57-2.63V70.1h12.87Zm-9.85,2.63v8.93q0,1,1.6,1h8.81V73.78q0-1.05-1.6-1h-8.81Z" transform="translate(-10.27 -7.84)"/><path class="cls-1" d="M137.42,80v-10h5.73a2,2,0,0,1,2.16,2.06v2.06S148,73.8,148,75.89V80H137.42Zm2.14-1.37h6.33V76.72a0.85,0.85,0,0,0-1-.89h-5.36v2.81Zm0-5.22a0.91,0.91,0,0,0,.84,1l2.82,0s0-.94,0-2a0.82,0.82,0,0,0-.85-1h-2.83S139.51,72.5,139.53,73.42Z" transform="translate(-10.27 -7.84)"/><path class="cls-1" d="M201,62.15V19.66q0-11.8,14.17-11.8h34v11.8H220.89q-5.67,0-5.67,4.72v26h34v11.8H201Z" transform="translate(-10.27 -7.84)"/><path class="cls-1" d="M301.15,7.91q12.74,0,12.74,9.36V62.19H268q-12.74,0-12.74-9.36V7.91h45.85ZM268,17.27V49.09q0,3.74,5.09,3.74h28V21q0-3.74-5.09-3.74H268Z" transform="translate(-10.27 -7.84)"/><path class="cls-1" d="M150.05,62.19H137.5V7.86h45.21q12.56,0,12.56,9.37v45H182.71V39.71H150.05V62.19Zm0-31.85h32.66V21q0-3.75-5-3.75H150.05V30.34Z" transform="translate(-10.27 -7.84)"/><path class="cls-1" d="M22.83,62.19H10.27V7.86H55.48Q68,7.86,68,17.22v45H55.48V39.71H22.83V62.19Zm0-31.85H55.48V21q0-3.75-5-3.75H22.83V30.34Z" transform="translate(-10.27 -7.84)"/><path class="cls-1" d="M73.82,62.17V7.84h31.29c12.37,0,11.79,11.24,11.79,11.24V30.32s14.81-2.05,14.81,9.37V62.17H73.82Zm12.56-9.7H119V43.1c0-2.5-1.67-3.75-5-3.59H86.38v13Zm0-26.71a4.32,4.32,0,0,0,4.09,4.38l13.76,0.07s0-4.29,0-9-4.13-4.34-4.13-4.34L86.35,17S86.32,21.58,86.4,25.76Z" transform="translate(-10.27 -7.84)"/></svg>