<?xml version="1.0" encoding="utf-8"?>
<!-- Generator: Adobe Illustrator 19.2.0, SVG Export Plug-In . SVG Version: 6.00 Build 0)  -->
<svg version="1.1" id="Layer_1" xmlns="http://www.w3.org/2000/svg" xmlns:xlink="http://www.w3.org/1999/xlink" x="0px" y="0px"
	 width="600px" height="600px" viewBox="0 0 600 600" enable-background="new 0 0 600 600" fill="#ffffff" xml:space="preserve">
<g>
	<path d="M569.229,387.247c0.366-2.24,0.546-4.466,0.546-6.647c0-17.226-10.518-32.893-26.36-39.552v-17.353
		c0-15.648-12.732-28.38-28.383-28.38H93.256c-15.651,0-28.383,12.732-28.383,28.38v17.353c-15.842,6.659-26.36,22.323-26.36,39.552
		c0,2.188,0.18,4.415,0.541,6.647c-12.603,2.134-22.087,13.09-22.087,26.146v68.684c0,14.639,11.908,26.55,26.55,26.55h21.355
		v37.462c0,5.802,4.721,10.523,10.523,10.523s10.523-4.721,10.523-10.523v-37.462h436.443v37.462
		c0,5.802,4.721,10.523,10.523,10.523c5.807,0,10.528-4.721,10.528-10.523v-37.462h21.35c14.642,0,26.555-11.911,26.555-26.55
		v-68.684C591.32,400.337,581.837,389.381,569.229,387.247z M526.842,358.717c4.453,0,8.752,1.349,12.433,3.897
		c5.915,4.108,9.447,10.832,9.447,17.986c0,2.69-0.51,5.354-1.508,7.918c-2.61,6.69-8.33,11.679-15.301,13.345
		c-8.85,2.098-17.139-1.161-22.365-7.916c-1.282-1.655-2.317-3.483-3.079-5.429c-0.999-2.564-1.508-5.228-1.508-7.918
		c0-11.375,8.886-20.949,20.254-21.798C525.756,358.761,526.291,358.717,526.842,358.717z M85.92,323.696
		c0-4.044,3.29-7.334,7.336-7.334h421.775c4.042,0,7.331,3.29,7.331,7.334v14.258c-21.757,2.25-38.453,20.519-38.453,42.647
		c0,3.104,0.366,6.286,1.086,9.458c0.216,0.965,0.469,1.923,0.752,2.868H122.535c0.283-0.945,0.535-1.902,0.752-2.865
		c0.721-3.174,1.086-6.356,1.086-9.46c0-22.128-16.696-40.397-38.453-42.647V323.696z M69.012,362.615
		c4.134-2.865,8.999-4.175,14.076-3.812c11.347,0.849,20.238,10.425,20.238,21.798c0,2.69-0.51,5.354-1.508,7.918
		c-0.757,1.938-1.792,3.766-3.084,5.432c-5.205,6.731-13.535,10.011-22.365,7.913c-6.971-1.668-12.691-6.657-15.301-13.345
		c-0.999-2.564-1.508-5.228-1.508-7.918C59.56,373.444,63.092,366.721,69.012,362.615z M570.274,482.078
		c0,3.035-2.471,5.504-5.509,5.504H43.518c-3.032,0-5.504-2.469-5.504-5.504v-68.684c0-3.035,2.471-5.504,5.504-5.504h4.855
		c8.217,9.957,20.192,15.641,33.068,15.641c9.787,0,19.317-3.385,26.941-9.555H499.9c7.625,6.17,17.154,9.555,26.941,9.555
		c12.876,0,24.851-5.684,33.068-15.641h4.855c3.038,0,5.509,2.469,5.509,5.504V482.078z"/>
	<g>
		<path d="M79.037,75.601c5.051,0,9.161-4.108,9.161-9.159V53.333c0-5.049-4.11-9.157-9.161-9.157
			c-5.047,0-9.157,4.108-9.157,9.157v13.109C69.88,71.493,73.99,75.601,79.037,75.601z"/>
		<path d="M69.88,159.388v13.107c0,5.051,4.11,9.161,9.157,9.161c5.051,0,9.161-4.11,9.161-9.161v-13.107
			c0-5.051-4.11-9.159-9.161-9.159C73.99,150.229,69.88,154.337,69.88,159.388z"/>
		<path d="M116.353,112.915c0,5.051,4.11,9.159,9.161,9.159h13.105c5.051,0,9.161-4.108,9.161-9.159
			s-4.11-9.159-9.161-9.159h-13.105C120.463,103.756,116.353,107.864,116.353,112.915z"/>
		<path d="M32.564,122.074c5.051,0,9.161-4.108,9.161-9.159s-4.11-9.159-9.161-9.159H19.459
			c-5.051,0-9.161,4.108-9.161,9.159s4.11,9.159,9.161,9.159H32.564z"/>
		<path d="M111.808,89.303c2.824,0,5.279-1.147,6.523-2.895l8.954-8.952c1.667-1.665,2.621-3.996,2.621-6.397
			s-0.954-4.732-2.617-6.389c-1.601-1.605-3.931-2.526-6.395-2.526h-0.004c-2.463,0-4.79,0.921-6.387,2.521l-9.248,9.24
			c-3.45,3.467-3.446,9.319,0.012,12.786C106.931,88.352,109.315,89.303,111.808,89.303z"/>
		<path d="M39.726,139.44l-9.24,9.24c-3.455,3.459-3.446,9.314,0.017,12.798c1.667,1.653,4.048,2.6,6.532,2.6
			c2.264,0,4.599-0.977,6.246-2.617l9.232-9.232c1.667-1.665,2.621-3.996,2.621-6.397c0-2.395-0.954-4.726-2.625-6.397
			C49.041,135.977,43.185,135.977,39.726,139.44z"/>
		<path d="M105.255,139.447c-3.45,3.467-3.446,9.319,0.008,12.779l9.236,9.234c1.659,1.665,4.043,2.619,6.544,2.619
			c2.895,0,5.387-1.199,6.702-3.115c1.393-1.63,2.161-3.722,2.161-5.895c0-2.403-0.958-4.734-2.621-6.393l-9.232-9.238
			C114.586,135.975,108.73,135.975,105.255,139.447z"/>
		<path d="M39.705,86.666l0.025,0.027c1.663,1.659,4.048,2.611,6.54,2.611c2.758,0,5.084-1.194,6.602-3.295
			c1.46-1.646,2.26-3.782,2.26-6.011c0-2.403-0.958-4.734-2.621-6.393l-9.232-9.234c-1.68-1.684-3.952-2.611-6.391-2.611h-0.004
			c-2.439,0-4.711,0.927-6.399,2.615c-3.455,3.463-3.471,9.296-0.058,12.713L39.705,86.666z"/>
		<path d="M79.041,143.498c16.862,0,30.581-13.719,30.581-30.583c0-16.862-13.719-30.581-30.581-30.581
			c-16.866,0-30.585,13.719-30.585,30.581C48.456,129.78,62.175,143.498,79.041,143.498z M79.041,97.817
			c8.327,0,15.1,6.772,15.1,15.098s-6.772,15.098-15.1,15.098s-15.1-6.772-15.1-15.098S70.714,97.817,79.041,97.817z"/>
	</g>
</g>
</svg>
