<?xml version="1.0" encoding="utf-8"?>
<!-- Generator: Adobe Illustrator 19.2.0, SVG Export Plug-In . SVG Version: 6.00 Build 0)  -->
<svg version="1.1" id="Layer_1" xmlns="http://www.w3.org/2000/svg" xmlns:xlink="http://www.w3.org/1999/xlink" x="0px" y="0px"
	 width="600px" height="600px" viewBox="0 0 600 600" enable-background="new 0 0 600 600" fill="#ffffff" xml:space="preserve">
<g>
	<g>
		<path d="M300,508.836c-113.883,0-206.534-92.651-206.534-206.534S186.117,95.767,300,95.767s206.534,92.651,206.534,206.534
			S413.883,508.836,300,508.836z M300,116.401c-102.505,0-185.9,83.395-185.9,185.9s83.395,185.9,185.9,185.9
			s185.9-83.395,185.9-185.9S402.505,116.401,300,116.401z M300,391.104c-48.972,0-88.809-39.837-88.809-88.802
			s39.837-88.802,88.809-88.802c48.965,0,88.802,39.837,88.802,88.802S348.965,391.104,300,391.104z M300,234.133
			c-37.594,0-68.175,30.581-68.175,68.169S262.406,370.47,300,370.47c37.587,0,68.169-30.581,68.169-68.169
			S337.587,234.133,300,234.133z"/>
	</g>
	<g>
		<path d="M272.527,316.254L272.527,316.254c0-8.721,3.924-13.953,11.337-17.005c-5.232-3.488-9.157-7.849-9.157-15.261l0,0
			c0-10.901,10.029-19.186,24.854-19.186c14.825,0,24.854,8.285,24.854,19.186l0,0c0,7.413-3.488,12.209-9.157,15.261
			c6.977,3.924,11.337,8.285,11.337,16.569l0,0c0,13.081-11.337,20.494-27.034,20.494
			C283.864,336.312,272.527,328.899,272.527,316.254z M311.771,315.382L311.771,315.382c0-5.668-5.232-8.721-12.209-8.721
			c-6.977,0-12.209,3.052-12.209,8.721l0,0c0,4.796,4.36,8.721,12.209,8.721C307.41,324.103,311.771,320.178,311.771,315.382z
			 M309.59,285.732L309.59,285.732c0-4.36-3.924-8.285-10.029-8.285c-6.104,0-10.029,3.924-10.029,8.285l0,0
			c0,4.796,3.924,8.721,10.029,8.721C305.666,294.452,309.59,290.528,309.59,285.732z"/>
	</g>
</g>
</svg>
