<svg xmlns="http://www.w3.org/2000/svg" viewBox="0 0 24 24"><defs><style>.cls-1{fill:#101010;}</style></defs><title>Asset 1</title><g id="Layer_2" data-name="Layer 2"><g id="Layer_2-2" data-name="Layer 2"><path id="arrow-right" class="cls-1" d="M12,24A12,12,0,1,1,24,12,12,12,0,0,1,12,24ZM12,2A10,10,0,1,0,22,12,10,10,0,0,0,12,2Zm6,10.08v0a1.13,1.13,0,0,1-.05.26l-.06.1a.86.86,0,0,1-.13.19l-.11.08-2.56,3.79a1.2,1.2,0,0,1-1.51.35.87.87,0,0,1-.41-1.3L14.89,13H7a1,1,0,0,1,0-2h7.89L13.15,8.42a.87.87,0,0,1,.24-1.21l.17-.09a1.21,1.21,0,0,1,1.51.35l2.54,3.76,0,0a1.08,1.08,0,0,1,.22.26h0a.84.84,0,0,1,.11.37v0a0,0,0,0,1,0,0s0,0,0,0,0,0,0,0A0,0,0,0,1,18,12.08Z"/></g></g></svg>