<?xml version="1.0" encoding="utf-8"?>
<!-- Generator: Adobe Illustrator 19.2.0, SVG Export Plug-In . SVG Version: 6.00 Build 0)  -->
<svg version="1.1" id="Layer_1" xmlns="http://www.w3.org/2000/svg" xmlns:xlink="http://www.w3.org/1999/xlink" x="0px" y="0px"
	 width="600px" height="600px" viewBox="0 0 600 600" enable-background="new 0 0 600 600" fill="#ffffff" xml:space="preserve">
<g>
	<path d="M198.404,105.151h-76.887c-6.049,0-10.971,4.92-10.971,10.967c0,6.051,4.922,10.971,10.971,10.971h76.887
		c6.049,0,10.971-4.92,10.971-10.971C209.375,110.071,204.453,105.151,198.404,105.151z"/>
	<path d="M198.404,142.12h-76.887c-6.049,0-10.971,4.92-10.971,10.971c0,6.047,4.922,10.967,10.971,10.967h76.887
		c6.049,0,10.971-4.92,10.971-10.967C209.375,147.039,204.453,142.12,198.404,142.12z"/>
	<path d="M198.404,179.088h-76.887c-6.049,0-10.971,4.92-10.971,10.971c0,6.051,4.922,10.971,10.971,10.971h76.887
		c6.049,0,10.971-4.92,10.971-10.971C209.375,184.008,204.453,179.088,198.404,179.088z"/>
	<path d="M123.304,287.699c-6.049,0-10.969,4.92-10.969,10.967v60.6c0,6.051,4.92,10.971,10.969,10.971
		c6.049,0,10.969-4.92,10.969-10.971v-60.6C134.273,292.618,129.353,287.699,123.304,287.699z"/>
	<path d="M340.558,105.151h-76.887c-6.049,0-10.971,4.92-10.971,10.967c0,6.051,4.922,10.971,10.971,10.971h76.887
		c6.049,0,10.971-4.92,10.971-10.971C351.529,110.071,346.608,105.151,340.558,105.151z"/>
	<path d="M340.558,142.12h-76.887c-6.049,0-10.971,4.92-10.971,10.971c0,6.047,4.922,10.967,10.971,10.967h76.887
		c6.049,0,10.971-4.92,10.971-10.967C351.529,147.039,346.608,142.12,340.558,142.12z"/>
	<path d="M340.558,179.088h-76.887c-6.049,0-10.971,4.92-10.971,10.971c0,6.051,4.922,10.971,10.971,10.971h76.887
		c6.049,0,10.971-4.92,10.971-10.971C351.529,184.008,346.608,179.088,340.558,179.088z"/>
	<path d="M265.458,287.699c-6.049,0-10.969,4.92-10.969,10.967v60.6c0,6.051,4.92,10.971,10.969,10.971
		c6.049,0,10.969-4.92,10.969-10.971v-60.6C276.427,292.618,271.508,287.699,265.458,287.699z"/>
	<path d="M501.315,56.953H387.428c-5.08,0-10.033,1.575-14.186,4.429c-4.153-2.854-9.106-4.429-14.182-4.429H245.174
		c-5.056,0-9.991,1.564-14.133,4.394c-4.144-2.83-9.082-4.394-14.135-4.394H103.02c-13.843,0-25.104,11.261-25.104,25.104v433.214
		c0,13.841,11.261,25.102,25.104,25.102h113.887c5.056,0,9.991-1.564,14.135-4.394c4.14,2.83,9.077,4.394,14.133,4.394H359.06
		c5.082,0,10.035-1.573,14.188-4.429c4.155,2.852,9.108,4.429,14.18,4.429h113.887c13.843,0,25.104-11.261,25.104-25.102V82.057
		C526.419,68.214,515.158,56.953,501.315,56.953z M220.07,515.271c0,1.747-1.422,3.168-3.168,3.168H103.02
		c-1.747,0-3.168-1.422-3.168-3.168V82.057c0-1.749,1.422-3.171,3.168-3.171h113.887c1.749,0,3.171,1.422,3.171,3.171
		L220.07,515.271z M362.224,515.271c0,1.747-1.422,3.168-3.168,3.168H245.174c-1.749,0-3.171-1.422-3.171-3.168V82.057
		c0-1.749,1.422-3.171,3.171-3.171H359.06c1.749,0,3.171,1.422,3.171,3.171L362.224,515.271z M504.479,515.271
		c0,1.747-1.422,3.168-3.171,3.168h-113.88c-1.749,0-3.171-1.422-3.171-3.168V82.057c0-1.749,1.422-3.171,3.171-3.171h113.887
		c1.749,0,3.171,1.422,3.171,3.171L504.479,515.271z"/>
	<path d="M482.82,105.151h-76.896c-6.049,0-10.969,4.92-10.969,10.967c0,6.051,4.92,10.971,10.969,10.971h76.889
		c6.049,0,10.969-4.92,10.969-10.971C493.782,110.071,488.864,105.151,482.82,105.151z"/>
	<path d="M482.82,142.12h-76.896c-6.049,0-10.969,4.92-10.969,10.971c0,6.047,4.92,10.967,10.969,10.967h76.889
		c6.049,0,10.969-4.92,10.969-10.967C493.782,147.039,488.864,142.12,482.82,142.12z"/>
	<path d="M482.82,179.088h-76.896c-6.049,0-10.969,4.92-10.969,10.971c0,6.051,4.92,10.971,10.969,10.971h76.889
		c6.049,0,10.969-4.92,10.969-10.971C493.782,184.008,488.864,179.088,482.82,179.088z"/>
	<path d="M407.717,287.699c-6.049,0-10.969,4.92-10.969,10.967v60.6c0,6.051,4.92,10.971,10.969,10.971
		c6.049,0,10.969-4.92,10.969-10.971v-60.608C418.677,292.614,413.756,287.699,407.717,287.699z"/>
</g>
</svg>
