<?xml version="1.0" encoding="utf-8"?>
<!-- Generator: Adobe Illustrator 19.2.0, SVG Export Plug-In . SVG Version: 6.00 Build 0)  -->
<svg version="1.1" id="Layer_1" xmlns="http://www.w3.org/2000/svg" xmlns:xlink="http://www.w3.org/1999/xlink" x="0px" y="0px"
	 width="600px" height="600px" viewBox="0 0 600 600" enable-background="new 0 0 600 600" fill="#ffffff" xml:space="preserve">
<g>
	<path d="M227.522,415.313c-20.413,0-37.024-16.617-37.024-37.042c0-20.419,16.611-37.03,37.024-37.03
		c20.419,0,37.024,16.611,37.024,37.03C264.546,398.696,247.941,415.313,227.522,415.313z M227.522,360.902
		c-9.576,0-17.363,7.787-17.363,17.369s7.787,17.381,17.363,17.381s17.363-7.793,17.363-17.381
		C244.885,368.695,237.098,360.902,227.522,360.902z"/>
	<path d="M385.917,415.313c-20.425,0-37.042-16.617-37.042-37.042c0-20.419,16.617-37.03,37.042-37.03
		c20.419,0,37.024,16.611,37.024,37.03C422.941,398.696,406.33,415.313,385.917,415.313z M385.917,360.902
		c-9.582,0-17.381,7.787-17.381,17.369s7.793,17.381,17.381,17.381c9.576,0,17.363-7.793,17.363-17.381
		C403.28,368.695,395.487,360.902,385.917,360.902z"/>
	<path d="M464.774,189.265c0-1.054-0.207-2.049-0.515-2.997v-10.363c0-30.723-24.991-55.708-55.714-55.708H204.888
		c-30.723,0-55.714,24.991-55.714,55.708v13.36v93.632v126.28c0,30.723,24.991,55.708,55.714,55.708h203.657
		c30.723,0,55.714-24.991,55.714-55.708V285.894c0.308-0.948,0.515-1.942,0.515-2.997V189.265z M444.598,273.067h-127.53v-73.971
		h127.53V273.067z M204.894,139.858h203.657c19.874,0,36.047,16.167,36.047,36.047v3.53h-137.36c-0.089,0-0.172,0.024-0.261,0.03
		c-0.089-0.006-0.172-0.03-0.261-0.03H168.841v-3.53C168.841,156.031,185.014,139.858,204.894,139.858z M168.841,199.096h128.045
		v73.971H168.841V199.096z M408.545,445.225H204.888c-19.874,0-36.047-16.167-36.047-36.047V292.734h137.875
		c0.089,0,0.172-0.024,0.261-0.03c0.089,0.006,0.172,0.03,0.261,0.03h137.36v116.45
		C444.598,429.058,428.425,445.225,408.545,445.225z"/>
	<path d="M200.322,548.202c-1.409,0-2.837-0.302-4.193-0.942c-4.909-2.315-7.012-8.178-4.696-13.088l23.404-49.579
		c2.315-4.909,8.184-7.012,13.088-4.69c4.909,2.315,7.012,8.178,4.696,13.088l-23.404,49.579
		C207.541,546.123,204.006,548.202,200.322,548.202z"/>
	<path d="M413.117,548.202c-3.683,0-7.219-2.079-8.895-5.632L380.8,492.992c-2.321-4.909-0.219-10.766,4.69-13.088
		c4.909-2.315,10.772-0.225,13.088,4.69L422,534.173c2.321,4.909,0.219,10.766-4.69,13.088
		C415.953,547.9,414.526,548.202,413.117,548.202z"/>
	<path d="M420.667,82.137l-27.194-24.789c-2.15-1.972-4.939-2.76-7.633-2.481c-0.296-0.024-0.58-0.089-0.876-0.089H226.592
		c-0.231,0-0.438,0.053-0.663,0.071c-0.349,0.024-0.693,0.041-1.036,0.107c-0.314,0.053-0.616,0.136-0.918,0.225
		c-0.308,0.083-0.616,0.166-0.924,0.284c-0.308,0.124-0.598,0.266-0.894,0.415c-0.272,0.136-0.545,0.278-0.811,0.438
		c-0.308,0.195-0.586,0.42-0.865,0.645c-0.166,0.13-0.349,0.231-0.509,0.373l-27.217,24.789c-4.015,3.654-4.305,9.878-0.651,13.893
		c1.942,2.126,4.601,3.21,7.272,3.21c2.363,0,4.732-0.847,6.615-2.564l24.404-22.225h23.546v21.834c0,5.43,4.4,9.83,9.83,9.83
		c5.43,0,9.83-4.4,9.83-9.83V74.444h60.209v21.834c0,5.43,4.4,9.83,9.83,9.83s9.83-4.4,9.83-9.83V74.444h29.568l24.381,22.219
		c1.883,1.723,4.258,2.57,6.621,2.57c2.671,0,5.33-1.084,7.272-3.21C424.972,92.009,424.682,85.791,420.667,82.137z"/>
</g>
</svg>
