<?xml version="1.0" encoding="utf-8"?>
<!-- Generator: Adobe Illustrator 19.2.0, SVG Export Plug-In . SVG Version: 6.00 Build 0)  -->
<svg version="1.1" id="Layer_1" xmlns="http://www.w3.org/2000/svg" xmlns:xlink="http://www.w3.org/1999/xlink" x="0px" y="0px"
	 width="600px" height="600px" viewBox="0 0 600 600" enable-background="new 0 0 600 600" fill="#ffffff" xml:space="preserve">
<g>
	<path d="M528.033,56.268H86.371C63.008,56.268,44,75.278,44,98.642v69.474c0,23.363,19.008,42.369,42.371,42.369
		h1.938v297.289c0,23.596,19.197,42.795,42.795,42.795h352.198c23.596,0,42.795-19.199,42.795-42.795V210.484h1.935
		c23.363,0,42.374-19.005,42.374-42.369V98.642C570.407,75.278,551.396,56.268,528.033,56.268z M504.808,507.773
		c0,11.859-9.647,21.506-21.506,21.506H131.105c-11.859,0-21.506-9.647-21.506-21.506V210.484h395.21V507.773z M549.117,168.115
		c0,11.621-9.458,21.079-21.084,21.079h-3.34h-22.839H112.552H89.714h-3.342c-11.623,0-21.082-9.458-21.082-21.079V98.642
		c0-11.626,9.458-21.084,21.082-21.084h441.662c11.626,0,21.084,9.458,21.084,21.084V168.115z"/>
	<path d="M254.476,315.302h105.455c22.972,0,41.662-18.689,41.662-41.659c0-22.975-18.689-41.664-41.662-41.664
		H254.476c-22.972,0-41.661,18.689-41.661,41.664C212.814,296.612,231.503,315.302,254.476,315.302z M254.476,253.268h105.455
		c11.232,0,20.372,9.142,20.372,20.375c0,11.232-9.14,20.369-20.372,20.369H254.476c-11.232,0-20.372-9.137-20.372-20.369
		C234.104,262.41,243.243,253.268,254.476,253.268z"/>
</g>
</svg>
