<?xml version="1.0" encoding="utf-8"?>
<!-- Generator: Adobe Illustrator 19.2.0, SVG Export Plug-In . SVG Version: 6.00 Build 0)  -->
<svg version="1.1" id="Layer_1" xmlns="http://www.w3.org/2000/svg" xmlns:xlink="http://www.w3.org/1999/xlink" x="0px" y="0px"
	 viewBox="0 0 117 67" style="enable-background:new 0 0 117 67;" xml:space="preserve">
<style type="text/css">
	.st0{fill:#FFFFFF;}
</style>
<g id="XMLID_12_">
	<path id="XMLID_18_" class="st0" d="M6.8,43.1c0.1,0,1.7,1.1,3.8,2.1c2.5,1.2,5.1,2.2,7.6,2.2l0,0c2.4,0,4.2-1.1,5.6-2l0.6-0.3
		c1.8-1.1,3-1.5,4-1.5c1.1,0,2.2,0.6,3.8,1.5l0.4,0.3c1.5,0.9,3.4,2.1,5.9,2.1c2.4,0,4.4-1.2,5.9-2.1l0.4-0.3c1.6-1,2.7-1.5,3.8-1.5
		s2.2,0.6,3.8,1.5l0.4,0.3c1.5,0.9,3.4,2.1,5.9,2.1c2.4,0,4.4-1.2,5.9-2.1l0.4-0.3c1.6-1,2.7-1.5,3.8-1.5c1.1,0,2.2,0.6,3.8,1.5
		l0.4,0.3c1.5,0.9,3.4,2.1,5.9,2.1c2.4,0,4.4-1.2,5.9-2.1l0.4-0.3c1.6-1,2.7-1.5,3.8-1.5c1,0,2.2,0.5,4,1.5l0.6,0.3
		c1.5,0.9,3.3,2,5.6,2l0,0c2.6,0,5.3-1.2,7.6-2.2c2.2-1,3.8-2,3.8-2c0.5-0.3,0.9-0.8,1.1-1.4c0.2-0.6,0.1-1.2-0.2-1.8
		c-0.6-1.1-2.1-1.5-3.2-0.9c0,0-1.6,0.9-3.5,1.8c-1.9,0.9-4.4,1.8-5.6,1.8l0,0c-1.1,0-2.3-0.7-3.8-1.7l-0.1-0.1
		c-1.6-1-3.6-2.2-6.2-2.2s-4.6,1.2-6.2,2.2L82.8,41c-1.5,0.9-2.7,1.6-3.8,1.6c-1.1,0-2.3-0.7-3.8-1.7l-0.1-0.1
		c-1.6-1-3.6-2.2-6.2-2.2s-4.6,1.2-6.2,2.2l-0.2,0.1c-1.5,0.9-2.7,1.6-3.8,1.6s-2.3-0.7-3.8-1.7l-0.1-0.1c-1.6-1-3.6-2.2-6.2-2.2
		c-2.6,0-4.6,1.2-6.2,2.2l-0.2,0.1c-1.5,0.9-2.7,1.6-3.8,1.6c-0.9,0-1.9-0.5-3.1-1.2l32.4-17.9c1.1-0.6,1.5-2.1,0.8-3.2
		c0-0.1-0.1-0.1-0.1-0.2L60.7,8.6c-0.5-0.8-1.4-1.2-2.3-1L35,11.5c-0.6,0-1.2,0.3-1.6,0.7c-0.4,0.5-0.7,1-0.6,1.7
		c0,0.6,0.3,1.2,0.7,1.6c0.5,0.4,1,0.7,1.7,0.6c0.3,0,0.5-0.1,0.7-0.1l22-3.6l5.6,8.4L30.3,39.1l0,0c-0.6-0.1-1.2-0.2-1.8-0.2
		c-2.6,0-4.6,1.2-6.2,2.2l-0.2,0.1c-1.5,0.9-2.7,1.6-3.8,1.6l0,0c-1.2,0-3.7-0.9-5.6-1.8c-1.9-0.9-3.4-1.8-3.4-1.8
		c-0.6-0.4-1.4-0.5-2-0.3L7,39l0,0c-0.5,0.2-0.9,0.6-1.1,1.1c-0.3,0.6-0.3,1.2-0.1,1.8C6,42.4,6.3,42.8,6.8,43.1z"/>
	<path id="XMLID_20_" class="st0" d="M108.5,50.9c0,0-1.6,0.9-3.5,1.8c-1.9,0.9-4.4,1.8-5.6,1.8l0,0c-1.1,0-2.3-0.7-3.8-1.7
		l-0.1-0.1c-1.6-1-3.6-2.2-6.2-2.2s-4.6,1.2-6.2,2.2L83,52.8c-1.5,0.9-2.7,1.6-3.8,1.6c-1.1,0-2.3-0.7-3.8-1.7l-0.1-0.1
		c-1.6-1-3.6-2.2-6.2-2.2s-4.6,1.2-6.2,2.2l-0.1,0.1c-1.5,0.9-2.7,1.6-3.8,1.6s-2.3-0.7-3.8-1.7l-0.1-0.1c-1.6-1-3.6-2.2-6.2-2.2
		c-2.6,0-4.6,1.2-6.2,2.2l-0.1,0.1c-1.5,0.9-2.7,1.6-3.8,1.6s-2.3-0.7-3.8-1.7l-0.1-0.1c-1.6-1-3.6-2.2-6.2-2.2s-4.6,1.2-6.2,2.2
		l-0.1,0.1c-1.5,0.9-2.7,1.6-3.8,1.6l0,0c-1.2,0-3.7-0.9-5.6-1.8c-1.9-0.9-3.4-1.8-3.4-1.8c-0.6-0.4-1.4-0.5-2-0.3L7,50.7l0,0
		c-1.1,0.5-1.6,1.7-1.2,2.8c0.2,0.5,0.5,1,1,1.3c0.1,0,1.7,1.1,3.8,2.1c2.5,1.2,5.1,2.2,7.6,2.2l0,0c2.4,0,4.2-1.1,5.6-2l0.6-0.3
		c1.8-1.1,3-1.5,4-1.5c1.1,0,2.2,0.6,3.8,1.5l0.4,0.3c1.5,0.9,3.4,2.1,5.9,2.1c2.4,0,4.4-1.2,5.9-2.1l0.4-0.3c1.6-1,2.7-1.5,3.8-1.5
		s2.2,0.6,3.8,1.5l0.4,0.3c1.5,0.9,3.4,2.1,5.9,2.1c2.4,0,4.4-1.2,5.9-2.1l0.4-0.3c1.6-1,2.7-1.5,3.8-1.5c1.1,0,2.2,0.6,3.8,1.5
		l0.4,0.3c1.5,0.9,3.4,2.1,5.9,2.1c2.4,0,4.4-1.2,5.9-2.1l0.4-0.3c1.6-1,2.7-1.5,3.8-1.5c1,0,2.2,0.5,4,1.5l0.6,0.3
		c1.5,0.9,3.3,2,5.6,2l0,0c2.6,0,5.3-1.2,7.6-2.2c2.2-1,3.8-2,3.8-2c0.5-0.3,0.9-0.8,1.1-1.4c0.2-0.6,0.1-1.2-0.2-1.8
		C111.1,50.7,109.6,50.3,108.5,50.9z"/>
	<path id="XMLID_54_" class="st0" d="M84.3,31.8c6.6,0,12.1-5.5,12.1-12.1S90.8,7.6,84.3,7.6s-12.1,5.5-12.1,12.1
		S77.7,31.8,84.3,31.8z M84.3,12.3c3.8,0,7.4,3.7,7.4,7.4c0,3.8-3.7,7.4-7.4,7.4s-7.4-3.7-7.4-7.4C76.8,15.9,80.5,12.3,84.3,12.3z"
		/>
</g>
</svg>
