<svg id="Layer_1" data-name="Layer 1" xmlns="http://www.w3.org/2000/svg" viewBox="0 0 48 48"><defs><style>.cls-1{fill:none;stroke:#fff;stroke-linecap:round;stroke-miterlimit:10;stroke-width:3px;}.cls-2{fill:#fff;}</style></defs><title>Centrum_New Nav_Train Icon</title><line class="cls-1" x1="14.56" y1="35.11" x2="7.13" y2="41.43"/><line class="cls-1" x1="33.44" y1="35.11" x2="40.87" y2="41.43"/><line class="cls-1" x1="8.51" y1="40.26" x2="39.49" y2="40.26"/><path class="cls-2" d="M37.42,11.21a4.83,4.83,0,0,0-4.69-4.65H15.28a4.83,4.83,0,0,0-4.69,4.65L9.79,30.46a4.36,4.36,0,0,0,4.3,4.64H33.91a4.36,4.36,0,0,0,4.3-4.64ZM30.6,23.34H17.4a2,2,0,0,1-2-2V13.82a2,2,0,0,1,2-2H30.6a2,2,0,0,1,2,2v7.47h0A2,2,0,0,1,30.6,23.34Z"/></svg>