<?xml version="1.0" encoding="utf-8"?>
<!-- Generator: Adobe Illustrator 19.2.0, SVG Export Plug-In . SVG Version: 6.00 Build 0)  -->
<svg version="1.1" id="Layer_1" xmlns="http://www.w3.org/2000/svg" xmlns:xlink="http://www.w3.org/1999/xlink" x="0px" y="0px"
	 viewBox="0 0 87 105" style="enable-background:new 0 0 87 105;" xml:space="preserve">
<style type="text/css">
	.st0{fill:#FFFFFF;}
</style>
<path id="XMLID_14_" class="st0" d="M15.6,17.1c0-1.3,1-2.3,2.3-2.3s2.3,1,2.3,2.3s-1,2.3-2.3,2.3S15.6,18.4,15.6,17.1z M53.1,19.4
	c1.3,0,2.3-1,2.3-2.3s-1-2.3-2.3-2.3s-2.3,1-2.3,2.3S51.9,19.4,53.1,19.4z M60.3,19.4c1.3,0,2.3-1,2.3-2.3s-1-2.3-2.3-2.3
	s-2.3,1-2.3,2.3S59,19.4,60.3,19.4z M67.4,19.4c1.3,0,2.3-1,2.3-2.3s-1-2.3-2.3-2.3s-2.3,1-2.3,2.3S66.1,19.4,67.4,19.4z M78.7,9.9
	v79.8c0,1.2-1,2.2-2.2,2.2h-4v4c0,1.2-1,2.2-2.2,2.2s-2.2-1-2.2-2.2v-4h-51v4c0,1.2-1,2.2-2.2,2.2s-2.2-1-2.2-2.2v-4h-4
	c-1.2,0-2.2-1-2.2-2.2V9.9c0-1.2,1-2.2,2.2-2.2h67.7C77.7,7.7,78.7,8.7,78.7,9.9z M74.3,26.5H11v61h63.3V26.5z M74.3,12H11v10.1
	h63.3V12z M21,57c0-12,9.7-21.7,21.7-21.7S64.4,45,64.4,57s-9.7,21.7-21.7,21.7S21,69,21,57z M25.7,53.2c1.8,0.5,2.9,1.4,3.8,2.1
	c1.1,0.9,1.8,1.5,3.5,1.5c1.6,0,2.4-0.6,3.5-1.5c1.3-1.1,3-2.4,6.2-2.4s4.8,1.3,6.2,2.4c1.1,0.9,1.8,1.5,3.5,1.5
	c1.6,0,2.4-0.6,3.5-1.5c0.9-0.8,2.1-1.7,3.8-2.1c-1.8-7.9-8.8-13.6-17-13.6C34.6,39.6,27.5,45.3,25.7,53.2z M25.3,57.6
	c0.3,9.3,8,16.8,17.4,16.8s17-7.5,17.4-16.8c-0.5,0.3-1,0.6-1.5,1.1c-1.3,1.1-3,2.4-6.2,2.4s-4.8-1.3-6.2-2.4
	c-1.1-0.9-1.8-1.5-3.5-1.5c-1.6,0-2.4,0.6-3.5,1.5c-1.3,1.1-3,2.4-6.2,2.4s-4.8-1.3-6.2-2.4C26.3,58.2,25.9,57.9,25.3,57.6z"/>
</svg>
